<svg width="147" height="141" viewBox="0 0 147 141" fill="none" xmlns="http://www.w3.org/2000/svg">
<g id="category icons">
<path id="Vector" d="M87.2879 80.0996C78.8222 87.9899 65.0529 87.9899 56.5872 80.0996C48.1215 72.2093 48.1215 59.376 56.5872 51.4857C65.0529 43.5954 78.8222 43.5954 87.2879 51.4857C95.7536 59.376 95.7536 72.2093 87.2879 80.0996ZM64.2624 58.6392C60.0295 62.5843 60.0295 69.001 64.2624 72.9461C68.4952 76.8913 75.3799 76.8913 79.6127 72.9461C83.8456 69.001 83.8456 62.5843 79.6127 58.6392C75.3799 54.694 68.4952 54.694 64.2624 58.6392ZM25.8866 72.9461C23.7682 74.9205 23.7682 78.1252 25.8866 80.0996C28.0049 82.074 31.4434 82.074 33.5617 80.0996C35.6801 78.1252 35.6801 74.9205 33.5617 72.9461C31.4434 70.9718 28.0049 70.9718 25.8866 72.9461ZM87.2879 37.1788C89.4062 39.1531 92.8447 39.1531 94.963 37.1788C97.0814 35.2044 97.0814 31.9997 94.9631 30.0253C92.8447 28.0509 89.4062 28.0509 87.2879 30.0253C85.1695 31.9997 85.1695 35.2044 87.2879 37.1788ZM48.9121 94.4065C46.7937 96.3809 46.7937 99.5856 48.912 101.56C51.0304 103.534 54.4689 103.534 56.5872 101.56C58.7056 99.5856 58.7056 96.3809 56.5872 94.4065C54.4689 92.4322 51.0304 92.4322 48.9121 94.4065ZM110.313 58.6392C112.432 60.6135 115.87 60.6135 117.989 58.6392C120.107 56.6648 120.107 53.4601 117.989 51.4857C115.87 49.5113 112.432 49.5113 110.313 51.4857C108.195 53.4601 108.195 56.6648 110.313 58.6392ZM125.668 80.096C119.374 85.9619 110.256 90.6831 101.437 95.2471C93.2745 99.4712 84.8357 103.846 79.6166 108.71C69.1361 118.478 63.3222 133.218 63.2569 133.364L60.3519 140.836L7.30498 91.3949C2.97619 87.3604 1.43349 81.5017 3.2832 76.0937C5.74693 68.9116 10.3328 58.8216 18.2114 51.4786C24.5895 45.534 32.7981 41.7105 40.7265 38.0122C48.2136 34.5248 55.2863 31.2307 60.421 26.445C65.7399 21.4876 68.691 16.1476 71.0626 11.8555C71.8493 10.4284 72.5669 9.13002 73.2769 7.9962C75.8058 3.92945 80.1346 1.26121 85.1465 0.653165C90.2121 0.0379683 95.1895 1.61531 98.8006 4.98102L145.945 48.9212L144.713 51.9721C144.441 52.6553 137.871 68.722 125.668 80.096ZM71.9414 101.556C78.235 95.6906 87.3531 90.9693 96.1719 86.4054C104.338 82.1777 112.773 77.8069 117.992 72.9426C125.668 65.7891 130.906 56.1498 133.22 51.3677L91.1293 12.1381C89.9166 11.0078 88.2473 10.482 86.5511 10.6895C85.5878 10.8075 83.7957 11.2832 82.6636 13.0895C82.0419 14.091 81.4087 15.2391 80.7141 16.4945C78.1391 21.1478 74.6124 27.5323 68.1 33.602C61.7219 39.5466 53.5133 43.3701 45.5849 47.0685C38.0978 50.5558 31.0251 53.8499 25.8904 58.6356C19.2168 64.8556 15.3409 74.1765 13.6216 79.1768C13.0115 80.9544 13.5295 82.8966 14.9763 84.245L56.3531 122.809C59.4347 116.883 64.6538 108.349 71.9414 101.556Z" fill="white" fill-opacity="0.4"/>
</g>
</svg>
