<svg width="138" height="133" viewBox="0 0 138 133" fill="none" xmlns="http://www.w3.org/2000/svg">
<g id="category icons">
<path id="Vector" d="M102.044 47.0424C102.044 50.7118 100.553 54.231 97.8999 56.8256C95.2467 59.4203 91.6482 60.878 87.896 60.878C84.1439 60.878 80.5454 59.4203 77.8922 56.8256C75.239 54.231 73.7485 50.7118 73.7485 47.0424C73.7485 43.373 75.239 39.8539 77.8922 37.2592C80.5454 34.6645 84.1439 33.2069 87.896 33.2069C91.6482 33.2069 95.2467 34.6645 97.8999 37.2592C100.553 39.8539 102.044 43.373 102.044 47.0424ZM102.01 85.0404C101.699 93.8335 99.454 102.458 95.4282 110.326C91.7189 117.186 86.1492 122.915 79.3301 126.883C72.511 130.852 64.706 132.907 56.7714 132.823H51.1123V102.385C51.0871 97.2551 48.9922 92.3427 45.2832 88.7155C41.5742 85.0883 36.551 83.0396 31.3057 83.0149H0.181089V77.4807C0.0954207 69.721 2.1968 62.0881 6.2547 55.4194C10.3126 48.7508 16.1703 43.3039 23.185 39.6764C31.2309 35.7393 40.0497 33.5441 49.0411 33.2401C57.2855 22.826 67.873 14.41 79.9819 8.64558C92.0908 2.88112 105.395 -0.0767761 118.862 0.00151458C121.103 -0.0123332 123.325 0.406525 125.4 1.23407C127.475 2.06162 129.362 3.28159 130.954 4.82401C132.546 6.36644 133.811 8.201 134.677 10.2225C135.542 12.244 135.991 14.4127 135.998 16.6042C136.094 29.799 133.077 42.8377 127.182 54.7069C121.288 66.5761 112.673 76.9562 102.01 85.0404ZM11.9745 71.9464H24.7752C28.9779 62.7928 33.9147 53.9787 39.5396 45.5869C35.6327 46.4758 31.847 47.8133 28.2612 49.5716C23.9487 51.7986 20.2293 54.9823 17.4011 58.8678C14.5729 62.7532 12.7144 67.2323 11.9745 71.9464ZM89.3844 94.3324C80.8033 99.8332 71.7905 104.661 62.4304 108.771V121.29C67.2508 120.566 71.831 118.748 75.804 115.983C79.7771 113.217 83.0326 109.58 85.3099 105.362C87.1078 101.855 88.4754 98.1531 89.3844 94.3324ZM124.68 16.4492C124.638 15.0085 124.024 13.6403 122.967 12.6357C121.91 11.6311 120.495 11.0694 119.021 11.07C89.8201 11.8835 70.0701 22.8247 51.0105 48.8244C45.6918 56.3134 41.0148 64.2192 37.027 72.4611C43.2062 73.5866 48.8922 76.5153 53.3367 80.8617C57.7812 85.2082 60.7759 90.7688 61.9268 96.8117C70.3546 92.9119 78.4386 88.338 86.0965 83.1366C112.66 64.4752 123.848 45.1608 124.68 16.4492ZM34.8257 98.9479C37.9877 102.072 39.7615 106.29 39.7615 110.686C39.7615 115.082 37.9877 119.3 34.8257 122.424C29.6929 127.438 14.3287 130.532 7.95659 131.633L0 133L1.39778 125.219C2.52959 118.987 5.68732 103.962 10.8144 98.9424C14.0499 95.9244 18.3499 94.2411 22.8212 94.2421C27.2925 94.2431 31.5916 95.9284 34.8257 98.9479ZM28.4762 110.686C28.4782 109.959 28.3327 109.239 28.0481 108.567C27.7635 107.896 27.3454 107.286 26.8181 106.773C25.7569 105.736 24.3178 105.153 22.8172 105.153C21.3166 105.153 19.8775 105.736 18.8163 106.773C16.6587 110.582 15.1434 114.707 14.3287 118.987C18.7077 118.187 22.9266 116.704 26.8238 114.593C27.3494 114.081 27.766 113.472 28.0496 112.801C28.3333 112.131 28.4782 111.412 28.4762 110.686Z" fill="white" fill-opacity="0.3"/>
</g>
</svg>
