<svg width="142" height="60" viewBox="0 0 142 60" fill="none" xmlns="http://www.w3.org/2000/svg">
<g id="link">
<path id="Rectangle 3776" d="M83 6C83 2.68629 85.6863 0 89 0H142V60H89C85.6863 60 83 57.3137 83 54V6Z" fill="#8CA3D2"/>
<path id="Vector" d="M104.437 28.6517C107.03 26.034 111.553 26.034 114.146 28.6517L115.764 30.2852L119 27.0182L117.382 25.3848C115.224 23.2037 112.349 22 109.291 22C106.234 22 103.359 23.2037 101.201 25.3848L96.3441 30.2852C94.2025 32.454 93 35.3914 93 38.4537C93 41.5159 94.2025 44.4533 96.3441 46.6221C97.4058 47.6954 98.6671 48.5463 100.055 49.126C101.444 49.7057 102.932 50.0027 104.435 50C105.938 50.0031 107.426 49.7063 108.815 49.1266C110.204 48.5469 111.466 47.6958 112.528 46.6221L114.146 44.9887L110.909 41.7217L109.291 43.3552C108.002 44.6514 106.256 45.3791 104.436 45.3791C102.616 45.3791 100.87 44.6514 99.5803 43.3552C98.2952 42.0538 97.5736 40.2912 97.5736 38.4537C97.5736 36.6161 98.2952 34.8535 99.5803 33.5521L104.437 28.6517Z" fill="white"/>
<path id="Vector_2" d="M111.721 14.3777L110.041 16.0112L113.402 19.2782L115.082 17.6447C116.421 16.3485 118.234 15.6208 120.124 15.6208C122.014 15.6208 123.827 16.3485 125.167 17.6447C126.501 18.9461 127.25 20.7087 127.25 22.5463C127.25 24.3838 126.501 26.1464 125.167 27.4478L120.123 32.3483C117.43 34.966 112.734 34.966 110.041 32.3483L108.361 30.7148L105 33.9817L106.68 35.6152C108.922 37.7963 111.907 39 115.082 39C118.257 39 121.243 37.7963 123.484 35.6152L128.527 30.7148C130.751 28.546 132 25.6086 132 22.5463C132 19.484 130.751 16.5466 128.527 14.3777C126.297 12.2147 123.275 11 120.124 11C116.974 11 113.952 12.2147 111.721 14.3777Z" fill="white"/>
</g>
</svg>
