<svg width="59" height="61" viewBox="0 0 59 61" fill="none" xmlns="http://www.w3.org/2000/svg">
<g id="facebook messenger">
<path id="Rectangle 3776" d="M0 6C0 2.68629 2.68629 0 6 0H59V60H6C2.68629 60 0 57.3137 0 54V6Z" fill="#8CA3D2"/>
<path id="Vector" d="M29.625 9C18.2984 9 9 17.8292 9 28.7656C9 34.5922 11.6984 39.7691 15.875 43.375V51.3242L23.5028 47.5103C25.4416 48.0947 27.4697 48.5312 29.625 48.5312C40.9516 48.5312 50.25 39.702 50.25 28.7656C50.25 17.8292 40.9516 9 29.625 9ZM29.625 12.4375C39.1795 12.4375 46.8125 19.7697 46.8125 28.7656C46.8125 37.7616 39.1795 45.0938 29.625 45.0938C27.5711 45.0938 25.61 44.7036 23.7709 44.0728L23.0731 43.858L19.3125 45.7383V41.8711L18.668 41.3331C14.8541 38.327 12.4375 33.8222 12.4375 28.7656C12.4375 19.7697 20.0705 12.4375 29.625 12.4375ZM27.6914 23.3412L17.3256 34.2983L26.6172 29.142L31.5586 34.4598L41.8178 23.3395L32.7394 28.4442L27.6914 23.3412Z" fill="white"/>
</g>
</svg>
