<svg width="67" height="67" viewBox="0 0 67 67" fill="none" xmlns="http://www.w3.org/2000/svg">
<g clip-path="url(#clip0_582_24)">
<path d="M31.7079 0H35.333C40.1573 0.330461 44.7075 1.58149 48.9835 3.75309C49.3866 3.95736 49.8741 4.31959 50.2909 4.48028C50.5106 4.56381 50.5605 4.70725 50.4407 4.91061L49.7598 6.06813C49.6417 6.26786 49.4838 6.30781 49.2859 6.18797C43.2232 2.55199 35.7687 1.25012 28.938 2.25512C16.4504 4.09354 6.09809 13.3564 2.93057 25.6016C-2.42671 46.3144 13.863 65.8888 35.0497 65.02C35.146 65.0163 35.1959 65.0626 35.1995 65.1589L35.2567 67H31.6725C14.3342 65.8125 1.2937 52.5868 0 35.2976V31.6698C1.31276 14.3832 14.3614 1.16569 31.7079 0Z" fill="#3A4261"/>
<path d="M31.6533 18.3487C28.8644 18.7682 26.4268 19.8249 24.1199 21.5408C23.6106 21.9193 23.1203 21.7232 22.69 21.2929C19.9065 18.5167 17.1221 15.7414 14.3368 12.9669C13.645 12.2751 13.9936 11.6923 14.6391 11.1503C19.4889 7.07947 25.0713 4.80528 31.3864 4.32775C32.3315 4.25694 32.5112 4.91332 32.5085 5.72494C32.5067 9.58153 32.5067 13.4381 32.5085 17.2947C32.5085 17.912 32.2235 18.2634 31.6533 18.3487ZM23.7332 19.4C25.8657 18.011 27.9111 17.1095 30.4413 16.6274C30.5267 16.6111 30.5693 16.5593 30.5693 16.4722L30.5666 6.41401C30.5666 6.40637 30.5651 6.39882 30.562 6.39183C30.5589 6.38483 30.5544 6.37857 30.5488 6.37343C30.5431 6.36829 30.5365 6.3644 30.5292 6.36201C30.522 6.35962 30.5143 6.35877 30.5067 6.35954C25.2811 6.95328 20.6165 8.87522 16.513 12.1254C16.4222 12.198 16.4185 12.2751 16.5021 12.3569L23.5207 19.3782C23.5861 19.4436 23.6569 19.4509 23.7332 19.4Z" fill="#3A4261"/>
<path d="M42.6402 21.3556C40.396 19.6942 38.1599 18.8471 35.2675 18.3978C34.7827 18.3233 34.5385 18.001 34.5349 17.4309C34.5004 13.3673 34.4849 9.30464 34.4886 5.24288C34.4886 4.60738 34.8617 4.31777 35.6079 4.37406C42.0501 4.85159 47.7142 7.17026 52.6003 11.3301C53.3139 11.9374 53.0634 12.5448 52.4751 13.1331C49.697 15.9129 46.9181 18.691 44.1382 21.4672C43.6643 21.9411 43.1414 21.726 42.6402 21.3556ZM36.5585 16.6274C39.056 17.1068 41.1395 17.9919 43.2639 19.4C43.297 19.4216 43.3365 19.4313 43.3761 19.4273C43.4157 19.4233 43.4529 19.406 43.4818 19.3782L50.495 12.3596C50.5804 12.2761 50.5758 12.198 50.4814 12.1254C46.3979 8.88975 41.7569 6.96963 36.5585 6.36499C36.4731 6.35591 36.4305 6.39404 36.4305 6.47938V16.4722C36.4305 16.5593 36.4731 16.6111 36.5585 16.6274Z" fill="#3A4261"/>
<path d="M55.6236 8.3027L53.1162 6.30106C53.0621 6.25789 52.9833 6.26674 52.9401 6.32081L51.8833 7.64476C51.8401 7.69883 51.8489 7.77767 51.903 7.82083L54.4104 9.82247C54.4645 9.86564 54.5433 9.8568 54.5865 9.80272L55.6434 8.47878C55.6866 8.4247 55.6777 8.34587 55.6236 8.3027Z" fill="#3A4261"/>
<path d="M58.5025 14.1816L56.4271 11.7713C56.4112 11.7529 56.4029 11.7291 56.4039 11.7048C56.4049 11.6805 56.4152 11.6575 56.4326 11.6405L57.7154 10.4313C57.7249 10.4223 57.7361 10.4154 57.7483 10.4109C57.7606 10.4064 57.7736 10.4045 57.7866 10.4053C57.7996 10.406 57.8124 10.4095 57.824 10.4153C57.8356 10.4212 57.846 10.4294 57.8543 10.4394L60.0304 12.9833C60.0391 12.9931 60.0457 13.0046 60.0497 13.017C60.0537 13.0295 60.0551 13.0427 60.0539 13.0557C60.0526 13.0687 60.0486 13.0813 60.0423 13.0928C60.0359 13.1042 60.0272 13.1142 60.0168 13.1222L58.6332 14.1953C58.6139 14.2102 58.5895 14.2171 58.5651 14.2146C58.5408 14.2121 58.5184 14.2003 58.5025 14.1816Z" fill="#3A4261"/>
<path d="M21.3584 24.3569C19.6997 26.593 18.8337 28.8617 18.3979 31.7324C18.2998 32.386 17.717 32.5086 17.1042 32.5086C13.1495 32.5013 9.19582 32.5023 5.243 32.5113C4.39325 32.5141 4.29792 31.6943 4.36329 30.9889C4.92979 24.7791 7.24665 19.2639 11.3139 14.4431C11.9539 13.686 12.5068 13.8984 13.1387 14.5303C15.9149 17.3065 18.6911 20.0837 21.4674 22.8617C21.9413 23.3329 21.7261 23.8585 21.3584 24.3569ZM16.6167 30.4469C17.1042 27.9929 18.0193 25.7487 19.4301 23.6951C19.4438 23.6752 19.45 23.6509 19.4475 23.6265C19.445 23.6022 19.434 23.5792 19.4165 23.5617L12.3978 16.543C12.2889 16.4322 12.1863 16.4377 12.0901 16.5593C8.85991 20.6556 6.94887 25.3057 6.35695 30.5095C6.35574 30.5166 6.35619 30.5238 6.35825 30.5307C6.3603 30.5376 6.36392 30.544 6.36885 30.5494C6.37379 30.5549 6.37991 30.5592 6.38679 30.5622C6.39367 30.5652 6.40115 30.5667 6.40869 30.5667L16.4696 30.5694C16.5513 30.5694 16.6003 30.5286 16.6167 30.4469Z" fill="#3A4261"/>
<path d="M61.6891 19.2203L60.1339 16.5021C60.1186 16.4748 60.1142 16.4427 60.1218 16.4123C60.1294 16.3819 60.1484 16.3556 60.1748 16.3387L61.6101 15.4263C61.6241 15.4176 61.6398 15.4117 61.6561 15.4092C61.6725 15.4066 61.6892 15.4074 61.7052 15.4115C61.7212 15.4156 61.7363 15.4228 61.7494 15.4329C61.7626 15.4429 61.7735 15.4555 61.7817 15.4699L63.4158 18.3269C63.4238 18.3413 63.4289 18.3572 63.4306 18.3736C63.4323 18.39 63.4307 18.4066 63.4259 18.4224C63.421 18.4381 63.4131 18.4528 63.4025 18.4654C63.3918 18.478 63.3788 18.4883 63.3641 18.4958L61.8498 19.2693C61.8218 19.2831 61.7896 19.2858 61.7597 19.2766C61.7298 19.2675 61.7046 19.2474 61.6891 19.2203Z" fill="#3A4261"/>
<path d="M63.8788 24.7927L62.871 21.8403C62.8603 21.8092 62.8619 21.7752 62.8756 21.7453C62.8893 21.7153 62.914 21.6918 62.9446 21.6796L64.5133 21.0641C64.5294 21.0576 64.5466 21.0544 64.5639 21.0548C64.5813 21.0551 64.5983 21.059 64.6141 21.0661C64.6299 21.0732 64.6441 21.0835 64.6558 21.0963C64.6675 21.109 64.6765 21.124 64.6822 21.1404L65.7417 24.2371C65.7476 24.2535 65.7501 24.271 65.749 24.2884C65.7479 24.3058 65.7432 24.3228 65.7353 24.3384C65.7274 24.3539 65.7164 24.3677 65.703 24.3789C65.6896 24.39 65.674 24.3983 65.6573 24.4032L64.034 24.8744C64.0026 24.8831 63.969 24.8795 63.9402 24.8643C63.9113 24.8491 63.8894 24.8235 63.8788 24.7927Z" fill="#3A4261"/>
<path d="M44.8901 33.5C44.8901 36.5208 43.6901 39.4179 41.5541 41.5539C39.418 43.69 36.5209 44.89 33.5001 44.89C30.4793 44.89 27.5822 43.69 25.4462 41.5539C23.3101 39.4179 22.1101 36.5208 22.1101 33.5C22.1101 30.4792 23.3101 27.5821 25.4462 25.446C27.5822 23.31 30.4793 22.11 33.5001 22.11C36.5209 22.11 39.418 23.31 41.5541 25.446C43.6901 27.5821 44.8901 30.4792 44.8901 33.5ZM42.9427 33.5C42.9427 30.9956 41.9479 28.5939 40.1771 26.823C38.4062 25.0522 36.0045 24.0573 33.5001 24.0573C30.9958 24.0573 28.594 25.0522 26.8232 26.823C25.0523 28.5939 24.0575 30.9956 24.0575 33.5C24.0575 36.0043 25.0523 38.4061 26.8232 40.1769C28.594 41.9478 30.9958 42.9426 33.5001 42.9426C36.0045 42.9426 38.4062 41.9478 40.1771 40.1769C41.9479 38.4061 42.9427 36.0043 42.9427 33.5Z" fill="#3A4261"/>
<path d="M32.6937 37.9231V34.3307C32.6937 34.2545 32.6565 34.2072 32.5821 34.1891C28.8017 33.2658 28.829 28.2653 32.5712 27.2821C32.6656 27.2567 32.7092 27.1949 32.7019 27.0969C32.5875 25.6561 34.475 25.7651 34.2925 27.0969C34.287 27.1359 34.2959 27.1756 34.3174 27.2087C34.3389 27.2417 34.3717 27.2659 34.4096 27.2766C36.0637 27.7251 37.0161 28.7991 37.2666 30.4986C37.3411 31.0034 37.1323 31.3248 36.6402 31.4628L36.3978 31.5309C36.316 31.5536 36.2301 31.557 36.1467 31.541C36.0634 31.5249 35.9849 31.4898 35.9174 31.4384C35.8498 31.387 35.7951 31.3206 35.7575 31.2445C35.7199 31.1684 35.7004 31.0847 35.7006 30.9998C35.6969 30.0647 35.2866 29.3901 34.4695 28.9762C34.3588 28.9199 34.3034 28.9535 34.3034 29.0769V32.6176C34.3034 32.7156 34.3497 32.7801 34.4423 32.811C38.1572 34.0229 38.2389 38.7048 34.4396 39.7179C34.3451 39.7416 34.2988 39.8024 34.3007 39.9004C34.3497 41.284 32.6828 41.3303 32.6937 39.9059C32.6947 39.8629 32.6813 39.8208 32.6556 39.7862C32.63 39.7517 32.5936 39.7267 32.5521 39.7152C30.9143 39.2522 29.9756 38.18 29.7359 36.4987C29.6633 35.9939 29.873 35.6734 30.3651 35.5373L30.6102 35.4719C30.6915 35.4497 30.7769 35.4464 30.8596 35.4624C30.9423 35.4784 31.0202 35.5131 31.0871 35.564C31.1541 35.6149 31.2083 35.6805 31.2456 35.7557C31.2829 35.8309 31.3022 35.9136 31.302 35.9975C31.302 36.9326 31.7105 37.6081 32.5276 38.0239C32.6384 38.0802 32.6937 38.0466 32.6937 37.9231ZM32.7046 32.4868L32.6992 28.9871C32.6985 28.9789 32.6948 28.9712 32.6887 28.9657C32.6826 28.9601 32.6747 28.9571 32.6665 28.9571C32.3229 28.9576 31.9937 29.1409 31.7511 29.4667C31.5085 29.7925 31.3724 30.2342 31.3728 30.6947V30.7819C31.373 31.0102 31.4067 31.2363 31.4721 31.4473C31.5375 31.6582 31.6333 31.8499 31.754 32.0112C31.8746 32.1726 32.0178 32.3006 32.1753 32.3878C32.3328 32.475 32.5016 32.5198 32.672 32.5195C32.6762 32.5195 32.6805 32.5187 32.6845 32.517C32.6884 32.5154 32.692 32.513 32.6951 32.51C32.6981 32.5069 32.7005 32.5033 32.7021 32.4994C32.7038 32.4954 32.7046 32.4911 32.7046 32.4868ZM34.2898 34.5295L34.2843 38.0103C34.2843 38.0204 34.2883 38.0301 34.2955 38.0372C34.3026 38.0444 34.3123 38.0484 34.3224 38.0484C34.4957 38.0486 34.6673 38.004 34.8274 37.9171C34.9876 37.8301 35.1332 37.7026 35.2559 37.5417C35.3785 37.3808 35.4759 37.1898 35.5424 36.9795C35.6089 36.7692 35.6432 36.5438 35.6434 36.3162V36.2236C35.6437 35.7645 35.5054 35.3242 35.2587 34.9994C35.012 34.6746 34.6772 34.4919 34.3279 34.4914C34.3178 34.4914 34.3081 34.4954 34.3009 34.5026C34.2938 34.5097 34.2898 34.5194 34.2898 34.5295Z" fill="#3A4261"/>
<path d="M64.971 30.7138L64.5353 27.5708C64.5313 27.5434 64.5382 27.5155 64.5545 27.4931C64.5708 27.4708 64.5951 27.4556 64.6224 27.4509L66.3247 27.1377C66.3388 27.135 66.3534 27.1352 66.3675 27.1383C66.3816 27.1414 66.3949 27.1473 66.4066 27.1557C66.4183 27.1641 66.4282 27.1748 66.4357 27.1872C66.4431 27.1996 66.448 27.2133 66.4499 27.2276L66.8993 30.5122C66.9012 30.5262 66.9003 30.5404 66.8967 30.554C66.8931 30.5676 66.8868 30.5804 66.8781 30.5915C66.8695 30.6027 66.8588 30.612 66.8465 30.619C66.8342 30.6259 66.8207 30.6304 66.8067 30.6321L65.0854 30.8036C65.0585 30.806 65.0317 30.7981 65.0104 30.7814C64.9892 30.7647 64.9751 30.7405 64.971 30.7138Z" fill="#3A4261"/>
<path d="M66.9999 33.4564V35.3384L66.8501 36.9154C66.8481 36.9322 66.8396 36.9476 66.8263 36.9583C66.8131 36.969 66.7963 36.9741 66.7793 36.9726L65.0036 36.8037C64.9821 36.8016 64.9623 36.7914 64.9481 36.7752C64.934 36.759 64.9265 36.738 64.9273 36.7165L65.0962 33.5599C65.0998 33.4855 65.1388 33.4482 65.2133 33.4482L66.9999 33.4564Z" fill="#3A4261"/>
<path d="M18.4495 35.6625C18.8634 38.4678 19.8712 40.5268 21.5979 42.959C21.9329 43.4329 21.666 43.9367 21.2765 44.3262C18.493 47.1151 15.7077 49.9014 12.9206 52.6849C12.3132 53.2922 11.7386 53.0525 11.232 52.4561C7.04674 47.5155 4.7435 41.8786 4.32225 35.5454C4.27686 34.8627 4.6282 34.5195 5.37628 34.5159C9.41807 34.4941 13.459 34.485 17.4989 34.4886C18.158 34.4886 18.3623 35.0551 18.4495 35.6625ZM19.4245 43.294C18.0137 41.2458 17.0986 38.9989 16.6138 36.5477C16.6075 36.5148 16.5902 36.4852 16.5648 36.4638C16.5395 36.4424 16.5077 36.4307 16.4749 36.4305L6.53108 36.4333C6.41124 36.4333 6.35767 36.4923 6.37038 36.6103C6.98228 41.7905 8.90059 46.4161 12.1253 50.4869C12.1979 50.5777 12.2751 50.5822 12.3568 50.5005L19.4109 43.4465C19.4306 43.4266 19.4427 43.4005 19.4452 43.3727C19.4477 43.3448 19.4404 43.317 19.4245 43.294Z" fill="#3A4261"/>
<path d="M66.31 39.7842L64.6913 39.3866C64.6183 39.3687 64.5445 39.4133 64.5266 39.4864L63.7665 42.581C63.7486 42.654 63.7932 42.7278 63.8663 42.7457L65.485 43.1433C65.558 43.1612 65.6318 43.1166 65.6497 43.0435L66.4098 39.9489C66.4277 39.8759 66.3831 39.8021 66.31 39.7842Z" fill="#3A4261"/>
<path d="M64.5286 45.8561L63.0291 45.1664C62.9553 45.1324 62.868 45.1647 62.8341 45.2385L61.5116 48.1138C61.4776 48.1876 61.51 48.2749 61.5837 48.3089L63.0832 48.9985C63.157 49.0325 63.2444 49.0002 63.2783 48.9264L64.6008 46.0511C64.6347 45.9773 64.6024 45.89 64.5286 45.8561Z" fill="#3A4261"/>
<path d="M24.3352 45.6281C26.5794 47.2949 28.8482 48.1638 31.7324 48.6023C32.3861 48.7003 32.5114 49.2859 32.5086 49.8987C32.505 53.7607 32.5041 57.6227 32.5059 61.4848C32.5059 62.8901 31.5036 62.6995 30.4278 62.5824C24.4487 61.9287 19.1695 59.6709 14.5902 55.8088C13.9747 55.2886 13.6697 54.7303 14.3179 54.0821C17.1867 51.206 20.0583 48.3326 22.9325 45.462C23.3329 45.0643 23.9049 45.3094 24.3352 45.6281ZM30.4523 50.3835C27.9957 49.896 25.7569 48.9836 23.7006 47.5755C23.6784 47.56 23.6515 47.5529 23.6246 47.5554C23.5976 47.5579 23.5725 47.5698 23.5535 47.5891L16.445 54.7031C16.4367 54.7109 16.4302 54.7204 16.4259 54.7309C16.4216 54.7415 16.4196 54.7529 16.4201 54.7642C16.4207 54.7756 16.4236 54.7868 16.4289 54.7969C16.4341 54.807 16.4415 54.8159 16.4504 54.8229C20.5503 58.0912 25.2158 60.0286 30.4469 60.635C30.4625 60.6366 30.4782 60.6349 30.4931 60.6301C30.5079 60.6253 30.5216 60.6175 30.5331 60.6073C30.5447 60.597 30.5539 60.5844 30.5601 60.5705C30.5664 60.5565 30.5696 60.5414 30.5695 60.5261V50.5251C30.5695 50.447 30.5304 50.3998 30.4523 50.3835Z" fill="#3A4261"/>
<path d="M35.6435 48.5532C38.4978 48.1229 40.4506 47.1533 42.9999 45.3748C43.4357 45.0725 43.9559 45.353 44.3181 45.7152C47.1089 48.5005 49.896 51.2904 52.6795 54.0848C53.3549 54.7629 52.9927 55.3131 52.369 55.8388C47.6899 59.7934 41.6354 62.3726 35.4474 62.6668C35.3236 62.6727 35.1999 62.6534 35.0838 62.6102C34.9677 62.567 34.8616 62.5008 34.7719 62.4154C34.6823 62.3301 34.6109 62.2275 34.5622 62.1139C34.5136 62.0003 34.4885 61.8779 34.4887 61.7544C34.4869 57.5927 34.4878 53.4856 34.4914 49.4329C34.4914 48.8473 35.0988 48.6349 35.6435 48.5532ZM43.2613 47.6027C41.1506 49.0108 39.0452 49.8959 36.5586 50.3725C36.4733 50.3889 36.4306 50.4406 36.4306 50.5278V60.5206C36.4306 60.6077 36.4742 60.6459 36.5613 60.635C41.7743 60.0285 46.4252 58.1002 50.5142 54.8501C50.585 54.7938 50.5887 54.7339 50.5251 54.6703L43.482 47.6217C43.4148 47.5545 43.3412 47.5482 43.2613 47.6027Z" fill="#3A4261"/>
<path d="M61.6562 51.4991L60.2682 50.509C60.2143 50.4705 60.1395 50.4831 60.1011 50.537L58.2348 53.1534C58.1964 53.2073 58.2089 53.2821 58.2628 53.3205L59.6508 54.3106C59.7047 54.349 59.7795 54.3365 59.8179 54.2826L61.6842 51.6662C61.7227 51.6123 61.7101 51.5375 61.6562 51.4991Z" fill="#3A4261"/>
<path d="M56.3991 55.2542L54.0874 57.4633C54.0352 57.5132 54.0334 57.5959 54.0832 57.6481L55.2461 58.865C55.296 58.9172 55.3787 58.9191 55.4309 58.8692L57.7426 56.6601C57.7948 56.6102 57.7967 56.5275 57.7468 56.4753L56.5839 55.2584C56.5341 55.2062 56.4513 55.2043 56.3991 55.2542Z" fill="#3A4261"/>
<path d="M51.8824 59.1915L49.2038 60.9177C49.1406 60.9585 49.1224 61.0428 49.1631 61.106L50.069 62.5116C50.1098 62.5749 50.194 62.5931 50.2572 62.5523L52.9358 60.8261C52.999 60.7854 53.0172 60.7011 52.9765 60.6379L52.0706 59.2322C52.0299 59.169 51.9456 59.1508 51.8824 59.1915Z" fill="#3A4261"/>
<path d="M46.7117 62.2001L43.742 63.3999C43.6764 63.4264 43.6448 63.501 43.6712 63.5666L44.3018 65.1272C44.3283 65.1927 44.4029 65.2244 44.4684 65.1979L47.4381 63.9981C47.5037 63.9716 47.5353 63.897 47.5088 63.8314L46.8783 62.2708C46.8518 62.2053 46.7772 62.1736 46.7117 62.2001Z" fill="#3A4261"/>
<path d="M41.0576 64.1857L37.9275 64.7828C37.8551 64.7966 37.8076 64.8665 37.8214 64.9389L38.1347 66.5815C38.1486 66.6539 38.2184 66.7014 38.2908 66.6876L41.421 66.0905C41.4934 66.0767 41.5409 66.0068 41.5271 65.9344L41.2137 64.2918C41.1999 64.2194 41.13 64.1719 41.0576 64.1857Z" fill="#3A4261"/>
</g>
<defs>
<clipPath id="clip0_582_24">
<rect width="67" height="67" fill="white"/>
</clipPath>
</defs>
</svg>
