<svg width="67" height="67" viewBox="0 0 67 67" fill="none" xmlns="http://www.w3.org/2000/svg">
<path d="M15.1203 5H16.4174C21.623 5.68343 24.3524 11.507 21.1215 15.8C21.1069 15.8197 21.0998 15.844 21.1016 15.8686C21.1033 15.8933 21.1138 15.9167 21.1311 15.9348L23.7737 18.5698C23.8484 18.6441 23.907 18.7329 23.9458 18.8307C23.9847 18.9285 24.003 19.0332 23.9996 19.1384C23.9962 19.2435 23.9712 19.3469 23.9261 19.442C23.881 19.5371 23.8168 19.6219 23.7375 19.6912L23.5687 19.8404C23.4458 19.9481 23.2865 20.005 23.123 19.9997C22.9596 19.9943 22.8043 19.927 22.6887 19.8116L19.9907 17.1212C19.936 17.0666 19.8782 17.0618 19.8171 17.1067C15.1781 20.4276 9.09974 17.2607 9.00088 11.6201C8.94302 8.26793 11.7327 5.43075 15.1203 5ZM20.8587 11.726C20.8587 10.3755 20.3212 9.08031 19.3644 8.12538C18.4076 7.17044 17.1099 6.63396 15.7568 6.63396C14.4037 6.63396 13.106 7.17044 12.1492 8.12538C11.1924 9.08031 10.6549 10.3755 10.6549 11.726C10.6549 13.0764 11.1924 14.3716 12.1492 15.3266C13.106 16.2815 14.4037 16.818 15.7568 16.818C16.4268 16.818 17.0902 16.6863 17.7092 16.4304C18.3282 16.1745 18.8906 15.7994 19.3644 15.3266C19.8381 14.8537 20.2139 14.2924 20.4703 13.6746C20.7267 13.0568 20.8587 12.3947 20.8587 11.726Z" fill="#3A4261"/>
<path d="M49.5982 5H50.9522C59.4225 6.1341 58.7855 18.1879 50.3563 18.4744C48.8998 18.5258 47.5216 18.0691 46.2217 17.1043C46.1506 17.0513 46.0836 17.0562 46.0207 17.1188L43.3078 19.8132C43.1938 19.9267 43.0407 19.9933 42.8791 19.9995C42.7175 20.0058 42.5592 19.9513 42.4358 19.8469L42.2736 19.712C42.1921 19.6431 42.1258 19.5583 42.0788 19.4628C42.0318 19.3673 42.0053 19.2632 42.0007 19.1572C41.9962 19.0511 42.0137 18.9453 42.0524 18.8464C42.091 18.7476 42.1498 18.6578 42.2251 18.5827L44.858 15.9702C44.9129 15.9156 44.9178 15.8562 44.8725 15.792C41.6777 11.3832 44.3155 5.85961 49.5982 5ZM55.4041 11.73C55.4041 10.3787 54.8642 9.08274 53.903 8.12724C52.9418 7.17173 51.6382 6.63494 50.2788 6.63494C48.9195 6.63494 47.6159 7.17173 46.6547 8.12724C45.6935 9.08274 45.1535 10.3787 45.1535 11.73C45.1535 13.0813 45.6935 14.3772 46.6547 15.3327C47.6159 16.2882 48.9195 16.825 50.2788 16.825C50.9519 16.825 51.6184 16.6932 52.2402 16.4372C52.862 16.1811 53.427 15.8058 53.903 15.3327C54.3789 14.8596 54.7564 14.2979 55.014 13.6798C55.2716 13.0616 55.4041 12.3991 55.4041 11.73Z" fill="#3A4261"/>
<path d="M34.2032 21.3847C36.9239 23.8665 40.5319 24.5457 44.1824 24.1552C44.8218 24.0872 44.9894 24.7495 44.9917 25.3124C45.0028 27.486 45.0028 29.6597 44.9917 31.8334C44.9792 34.206 44.943 35.6285 44.8832 36.1007C44.0809 42.4423 39.2577 45.2516 33.854 46.9352C33.4103 47.0759 33.2971 46.9595 32.9148 46.8503C26.8456 45.123 22.013 41.3263 22.0012 34.3346C21.9965 31.2407 22.0059 28.1475 22.0295 25.0552C22.0342 24.2522 22.5345 24.1212 23.2211 24.2037C26.8669 24.6355 30.2224 23.6408 33.0635 21.1421C33.4174 20.8315 33.8728 21.0839 34.2032 21.3847ZM43.2503 25.9116C39.7839 26.1178 36.367 25.1911 33.618 23.0489C33.5535 22.9988 33.489 22.9988 33.4245 23.0489C30.5693 25.2032 27.2987 26.0838 23.7544 25.9164C23.6695 25.9116 23.627 25.9528 23.627 26.0401C23.6191 28.8252 23.6184 31.6102 23.6247 34.3953C23.6388 40.6155 28.0609 43.7741 33.3962 45.2637C33.4641 45.2828 33.5359 45.2828 33.6038 45.2637C38.8518 43.8178 43.34 40.6592 43.3801 34.5141C43.3989 31.6935 43.3982 28.8672 43.3777 26.0353C43.3761 25.948 43.3337 25.9067 43.2503 25.9116Z" fill="#3A4261"/>
<path d="M0 33.6716V32.3015C1.15909 24.0729 11.9381 23.8094 13.3367 32.0631C13.3447 32.1082 13.3702 32.1308 13.4133 32.1308H19.2087C19.7548 32.1308 20.0182 32.4161 19.999 32.9866L19.9942 33.1371C19.9892 33.32 19.9164 33.4936 19.7912 33.621C19.666 33.7485 19.4983 33.8198 19.3237 33.8197H13.4684C13.4323 33.8198 13.3974 33.8333 13.3701 33.8577C13.3429 33.8821 13.3251 33.9158 13.3199 33.9527C12.0004 42.1637 1.30038 41.9579 0 33.6716ZM11.7561 32.9966C11.7561 31.5883 11.2222 30.2376 10.2719 29.2418C9.32157 28.246 8.03265 27.6865 6.68869 27.6865C5.34473 27.6865 4.05582 28.246 3.10549 29.2418C2.15517 30.2376 1.62128 31.5883 1.62128 32.9966C1.62128 34.4049 2.15517 35.7555 3.10549 36.7514C4.05582 37.7472 5.34473 38.3066 6.68869 38.3066C8.03265 38.3066 9.32157 37.7472 10.2719 36.7514C11.2222 35.7555 11.7561 34.4049 11.7561 32.9966Z" fill="#3A4261"/>
<path d="M67 32.3352V33.7011C65.9686 41.9895 55.3156 42.1452 53.9638 33.8894C53.9576 33.8493 53.9357 33.8292 53.8983 33.8292H48.587C48.5097 33.8292 48.4332 33.8127 48.3618 33.7808C48.2905 33.7488 48.2257 33.702 48.1711 33.643C48.1166 33.584 48.0734 33.5139 48.044 33.4368C48.0147 33.3598 47.9997 33.2772 48 33.1939V32.9554C48.0016 32.4114 48.2549 32.1394 48.7601 32.1394H53.9007C53.9443 32.1394 53.9701 32.1159 53.9778 32.0691C55.332 23.866 65.8002 24.0016 67 32.3352ZM65.4167 33.0056C65.4167 32.3079 65.2887 31.617 65.04 30.9724C64.7913 30.3278 64.4267 29.7421 63.9672 29.2488C63.5077 28.7554 62.9621 28.364 62.3617 28.097C61.7613 27.83 61.1178 27.6926 60.4679 27.6926C59.1554 27.6926 57.8966 28.2524 56.9685 29.2488C56.0405 30.2451 55.5191 31.5965 55.5191 33.0056C55.5191 34.4147 56.0405 35.7661 56.9685 36.7625C57.8966 37.7589 59.1554 38.3186 60.4679 38.3186C61.1178 38.3186 61.7613 38.1812 62.3617 37.9142C62.9621 37.6472 63.5077 37.2558 63.9672 36.7625C64.4267 36.2691 64.7913 35.6834 65.04 35.0388C65.2887 34.3942 65.4167 33.7033 65.4167 33.0056Z" fill="#3A4261"/>
<path d="M34.2445 29.81L34.242 33.1845C34.242 33.273 34.284 33.3292 34.3679 33.3531C37.8214 34.3136 37.8616 38.9321 34.3628 39.8492C34.2739 39.8714 34.2328 39.9284 34.2395 40.0204C34.3427 41.3768 32.6084 41.2695 32.767 40.0383C32.7787 39.9412 32.7384 39.879 32.6461 39.8518C31.0989 39.4141 30.2205 38.3872 30.0107 36.771C29.9486 36.2806 30.1567 35.991 30.635 35.9025L30.864 35.8591C30.9374 35.8453 31.0129 35.8479 31.0852 35.8669C31.1575 35.8859 31.2248 35.9207 31.2823 35.9689C31.3399 36.0171 31.3864 36.0776 31.4185 36.146C31.4506 36.2144 31.4675 36.2891 31.4681 36.3649C31.4748 37.2436 31.8574 37.878 32.6159 38.268C32.7133 38.3191 32.7619 38.2893 32.7619 38.1786L32.7594 34.7887C32.7594 34.7087 32.7208 34.6584 32.6436 34.638C29.1725 33.7363 29.1473 29.0462 32.6487 28.1623C32.7376 28.1402 32.777 28.0831 32.767 27.9912C32.6235 26.6654 34.3704 26.6781 34.242 27.9784C34.2336 28.0669 34.2714 28.1231 34.3553 28.147C35.8773 28.5727 36.7541 29.5784 36.9857 31.1639C37.0578 31.656 36.8573 31.9668 36.3841 32.0963L36.1752 32.1525C36.1002 32.1728 36.0217 32.1754 35.9456 32.1601C35.8695 32.1447 35.798 32.1118 35.7364 32.0639C35.6749 32.016 35.625 31.9544 35.5906 31.8838C35.5563 31.8133 35.5384 31.7356 35.5383 31.6569C35.5383 30.7662 35.1499 30.1242 34.3729 29.7308C34.2873 29.6882 34.2445 29.7146 34.2445 29.81ZM32.631 33.0746C32.6445 33.0822 32.6597 33.0861 32.6752 33.0859C32.6906 33.0857 32.7057 33.0813 32.719 33.0733C32.7322 33.0653 32.7431 33.0539 32.7507 33.0402C32.7582 33.0265 32.7621 33.0111 32.7619 32.9955L32.7569 29.8636C32.7569 29.7478 32.7057 29.7146 32.6033 29.764C31.0452 30.5099 31.2139 32.3057 32.631 33.0746ZM34.3679 38.268C35.1012 37.9274 35.4863 37.3313 35.5232 36.4798C35.5302 36.2951 35.4974 36.1113 35.4269 35.9414C35.3564 35.7714 35.2501 35.6195 35.1155 35.4963L34.6875 35.1029C34.3939 34.8339 34.2462 34.9011 34.2445 35.3047L34.242 38.1837C34.242 38.279 34.284 38.3071 34.3679 38.268Z" fill="#3A4261"/>
<path d="M16.4528 61H15.0992C13.0727 60.6884 11.5176 59.8116 10.4337 58.3695C5.76829 52.1666 13.4421 44.2799 19.8055 48.8833C19.8746 48.9331 19.9388 48.9283 19.9982 48.8688L22.6597 46.2046C22.7857 46.0779 22.9556 46.0047 23.1342 46.0002C23.3128 45.9957 23.4862 46.0603 23.6183 46.1805L23.746 46.2961C23.8237 46.367 23.8863 46.4528 23.9299 46.5485C23.9735 46.6442 23.9973 46.7478 23.9998 46.8529C24.0023 46.9581 23.9834 47.0627 23.9443 47.1603C23.9053 47.258 23.8468 47.3467 23.7725 47.4211L21.1664 50.0275C21.1102 50.0837 21.1054 50.1447 21.1519 50.2106C24.3168 54.6213 21.7011 60.1328 16.4528 61ZM20.8653 54.2672C20.8653 52.9153 20.3284 51.6188 19.3726 50.6629C18.4168 49.707 17.1204 49.1699 15.7688 49.1699C14.4171 49.1699 13.1207 49.707 12.1649 50.6629C11.2091 51.6188 10.6722 52.9153 10.6722 54.2672C10.6722 55.619 11.2091 56.9155 12.1649 57.8714C13.1207 58.8273 14.4171 59.3644 15.7688 59.3644C17.1204 59.3644 18.4168 58.8273 19.3726 57.8714C20.3284 56.9155 20.8653 55.619 20.8653 54.2672Z" fill="#3A4261"/>
<path d="M50.9063 61H49.5459C44.2853 60.0914 41.6731 54.6014 44.858 50.1983C44.9047 50.1341 44.8999 50.0746 44.8435 50.02L42.2289 47.4124C42.154 47.3376 42.095 47.2484 42.0557 47.1502C42.0164 47.0521 41.9975 46.947 42.0003 46.8415C42.003 46.7359 42.0272 46.6321 42.0715 46.5363C42.1158 46.4406 42.1792 46.3549 42.2579 46.2845L42.3787 46.176C42.5098 46.0583 42.6815 45.9953 42.8582 46.0003C43.0349 46.0052 43.2032 46.0776 43.3284 46.2025L45.9768 48.8415C46.0396 48.9042 46.1073 48.9106 46.1798 48.8608C48.0034 47.6333 49.8592 47.2461 51.7472 47.6992C55.744 48.6583 58.0203 52.7361 56.5511 56.6403C55.6361 59.0712 53.7545 60.5244 50.9063 61ZM55.3671 54.264C55.3671 52.9115 54.8284 51.6144 53.8695 50.6581C52.9105 49.7017 51.61 49.1644 50.2539 49.1644C48.8978 49.1644 47.5972 49.7017 46.6383 50.6581C45.6794 51.6144 45.1407 52.9115 45.1407 54.264C45.1407 55.6165 45.6794 56.9136 46.6383 57.87C47.5972 58.8263 48.8978 59.3636 50.2539 59.3636C51.61 59.3636 52.9105 58.8263 53.8695 57.87C54.8284 56.9136 55.3671 55.6165 55.3671 54.264Z" fill="#3A4261"/>
</svg>
