<svg width="67" height="67" viewBox="0 0 67 67" fill="none" xmlns="http://www.w3.org/2000/svg">
<g clip-path="url(#clip0_582_58)">
<path d="M31.4958 0H35.6061C43.5704 0.504714 51.1064 3.78388 55.8547 10.4721C56.0217 10.7082 56.0479 10.9965 55.9333 11.3369C55.7586 11.8681 55.1497 12.119 54.6895 12.3994C54.604 12.4506 54.5933 12.5145 54.6574 12.5913C58.5493 17.3295 60.6971 22.7987 61.1011 28.9989C61.1477 29.7132 61.1555 31.2293 61.1244 33.5472C61.1225 33.6476 61.17 33.7056 61.2671 33.7214C65.5173 34.3796 66.5572 39.8311 67 43.3522V46.0411C66.4931 49.4442 65.7416 54.1696 61.9633 55.4949C61.8701 55.5283 61.8031 55.5903 61.7623 55.6808C58.7328 62.7321 50.7743 64.4971 43.9462 64.9457C43.8491 64.9516 43.7811 64.9989 43.7423 65.0874C43.2995 66.1086 42.5178 66.7462 41.3973 67H33.2116C30.4996 66.327 29.6664 62.8 32.3639 61.5101C32.8145 61.2937 33.5107 61.1825 34.4526 61.1766C36.4412 61.1648 38.4298 61.1648 40.4185 61.1766C41.941 61.1864 43.0354 61.7512 43.7015 62.8708C43.7539 62.9593 43.8306 63.0016 43.9316 62.9977C49.2479 62.7616 56.6878 61.1855 59.4843 56.0173C59.5368 55.9209 59.5086 55.8717 59.3999 55.8697C58.3453 55.8609 57.0753 56.0439 56.1868 55.5333C54.8817 54.7806 54.6196 53.6236 54.5992 52.0681C54.504 44.6283 54.5069 39.3982 54.6079 36.3778C54.6468 35.2385 55.1536 34.3884 56.1285 33.8276C56.982 33.3347 58.0948 33.4351 59.0824 33.4705C59.1795 33.4744 59.229 33.4272 59.2309 33.3288C59.3037 30.9204 59.263 28.3938 58.861 26.0975C58.0414 21.4243 56.0974 17.2665 53.029 13.6243C52.9913 13.5793 52.9381 13.5503 52.8799 13.5432C52.8216 13.5361 52.7626 13.5514 52.7144 13.5859C52.1143 14.0198 50.6957 15.3185 50.0286 14.4655C44.121 6.89775 33.9719 5.27441 25.3493 8.28793C22.1158 9.41542 19.396 11.3811 17.1899 14.1851C16.214 15.4218 15.1886 14.2323 14.3001 13.5978C14.251 13.5631 14.1907 13.5484 14.1314 13.5566C14.072 13.5648 14.0179 13.5953 13.9797 13.642C9.30523 19.3169 7.25154 25.8801 7.81861 33.3318C7.82443 33.4144 7.8691 33.4567 7.95261 33.4587C8.73039 33.4764 9.66839 33.3583 10.35 33.6063C12.028 34.2172 12.3746 35.5631 12.3979 37.3459C12.4989 44.7857 12.496 49.9972 12.3892 52.9802C12.3445 54.1923 11.7823 55.0659 10.7025 55.6011C9.4237 56.2357 7.47196 55.7576 6.09117 55.6277C1.57887 55.1997 0.381609 49.6508 0 46.0027V43.3139C0.448609 39.8311 1.48857 34.4002 5.68917 33.7273C5.78628 33.7115 5.83483 33.6535 5.83483 33.5531C5.83871 31.2647 5.85619 29.7712 5.88726 29.0727C6.15332 23.024 8.31868 17.5528 12.3833 12.6592C12.4552 12.5746 12.4455 12.4988 12.3542 12.4319C11.5327 11.8268 10.4316 11.5376 11.358 10.2123C15.9518 3.6363 23.7908 0.47815 31.4958 0ZM15.6984 12.1013C15.799 12.1656 15.9192 12.1905 16.0366 12.1715C16.154 12.1525 16.2605 12.0908 16.3363 11.998C17.0724 11.0929 17.9647 10.2468 19.0134 9.45969C28.0235 2.6859 43.014 3.10207 50.7219 12.0216C50.887 12.2145 51.0763 12.243 51.29 12.1072L53.1164 10.9355C53.3398 10.7938 53.3718 10.6157 53.2126 10.4012C52.6649 9.66335 51.9454 8.89988 51.054 8.11084C44.7269 2.50881 35.6411 1.00352 27.6011 2.57079C22.7227 3.51922 18.5833 5.5912 15.1828 8.78674C14.7138 9.22652 14.2885 9.87586 13.7729 10.3629C13.7361 10.3983 13.7078 10.4417 13.69 10.4898C13.6723 10.5379 13.6655 10.5895 13.6703 10.6407C13.675 10.6918 13.6912 10.7412 13.7176 10.7851C13.7439 10.829 13.7798 10.8663 13.8224 10.8941L15.6984 12.1013ZM10.487 36.6227C10.487 36.4623 10.4558 36.3034 10.3952 36.1551C10.3345 36.0069 10.2457 35.8722 10.1337 35.7587C10.0217 35.6452 9.88879 35.5552 9.74247 35.4938C9.59615 35.4324 9.43933 35.4008 9.28096 35.4008H8.02252C7.70267 35.4008 7.39592 35.5295 7.16975 35.7587C6.94358 35.9879 6.81652 36.2987 6.81652 36.6227V52.75C6.81652 53.074 6.94358 53.3848 7.16975 53.614C7.39592 53.8432 7.70267 53.9719 8.02252 53.9719H9.28096C9.43933 53.9719 9.59615 53.9403 9.74247 53.8789C9.88879 53.8175 10.0217 53.7275 10.1337 53.614C10.2457 53.5005 10.3345 53.3658 10.3952 53.2176C10.4558 53.0693 10.487 52.9104 10.487 52.75V36.6227ZM60.1806 36.6198C60.1806 36.2957 60.0535 35.9849 59.8273 35.7557C59.6012 35.5266 59.2944 35.3978 58.9746 35.3978H57.7161C57.3963 35.3978 57.0895 35.5266 56.8634 35.7557C56.6372 35.9849 56.5101 36.2957 56.5101 36.6198V52.7529C56.5101 53.077 56.6372 53.3878 56.8634 53.6169C57.0895 53.8461 57.3963 53.9748 57.7161 53.9748H58.9746C59.2944 53.9748 59.6012 53.8461 59.8273 53.6169C60.0535 53.3878 60.1806 53.077 60.1806 52.7529V36.6198ZM3.65004 37.4315C1.98087 40.3446 1.87891 43.3936 2.04787 46.8793C2.077 47.4637 2.34791 47.9685 2.33917 48.6119C2.33726 48.6952 2.35631 48.7775 2.39452 48.851C2.47609 49.0025 2.55183 49.2209 2.62174 49.5062C2.95965 50.8777 3.62091 52.0524 4.60552 53.0304C4.80749 53.2311 4.90848 53.1878 4.90848 52.9005L4.91139 36.1652C4.91139 36.0708 4.87352 36.0521 4.79778 36.1092C4.33752 36.4574 3.95494 36.8982 3.65004 37.4315ZM63.816 38.3612C63.3121 37.461 62.9946 36.7437 62.1673 36.059C62.1606 36.0528 62.1524 36.0489 62.1436 36.0476C62.1347 36.0463 62.1256 36.0478 62.1173 36.0519C62.109 36.0559 62.1019 36.0623 62.0968 36.0704C62.0917 36.0785 62.0889 36.0878 62.0886 36.0974V52.9123C62.0886 53.1838 62.1847 53.2242 62.377 53.0333C65.1298 50.309 65.0803 46.0057 64.9463 42.4225C64.9259 41.8617 64.6608 41.3747 64.6637 40.7578C64.6637 40.6654 64.6424 40.5778 64.5996 40.4952C64.5045 40.3181 64.4297 40.0524 64.3754 39.6982C64.3249 39.3854 64.1384 38.9397 63.816 38.3612ZM41.9595 64.0567C41.9597 63.9412 41.9375 63.8268 41.894 63.72C41.8506 63.6132 41.7868 63.5161 41.7063 63.4343C41.6259 63.3525 41.5303 63.2875 41.425 63.2431C41.3198 63.1987 41.2069 63.1758 41.0929 63.1756L33.5191 63.1622C33.4051 63.162 33.2921 63.1845 33.1867 63.2286C33.0813 63.2726 32.9855 63.3372 32.9048 63.4187C32.824 63.5003 32.7599 63.5971 32.7161 63.7037C32.6723 63.8104 32.6496 63.9247 32.6494 64.0402L32.6494 64.0874C32.6492 64.2029 32.6714 64.3174 32.7149 64.4242C32.7583 64.5309 32.8221 64.628 32.9025 64.7098C32.983 64.7917 33.0786 64.8566 33.1838 64.901C33.2891 64.9454 33.4019 64.9683 33.5159 64.9685L41.0898 64.9819C41.2038 64.9821 41.3167 64.9596 41.4221 64.9156C41.5275 64.8716 41.6233 64.8069 41.7041 64.7254C41.7848 64.6439 41.849 64.547 41.8928 64.4404C41.9366 64.3338 41.9592 64.2194 41.9594 64.1039L41.9595 64.0567Z" fill="#3A4261"/>
<path d="M53.0959 33.0779C53.0959 35.6857 52.5889 38.268 51.604 40.6773C50.619 43.0865 49.1754 45.2757 47.3555 47.1196C45.5355 48.9636 43.375 50.4264 40.9971 51.4243C38.6192 52.4223 36.0707 52.9359 33.4969 52.9359C28.2989 52.9359 23.3139 50.8437 19.6384 47.1196C15.9628 43.3956 13.8979 38.3446 13.8979 33.0779C13.8979 27.8113 15.9628 22.7603 19.6384 19.0362C23.3139 15.3121 28.2989 13.22 33.4969 13.22C36.0707 13.22 38.6192 13.7336 40.9971 14.7316C43.375 15.7295 45.5355 17.1923 47.3555 19.0362C49.1754 20.8802 50.619 23.0693 51.604 25.4786C52.5889 27.8879 53.0959 30.4702 53.0959 33.0779ZM32.1919 15.6314C30.5635 17.178 29.5818 19.5835 29.0603 21.7381C29.039 21.8306 29.0021 21.9162 28.9496 21.9949C28.8953 22.0756 28.8623 22.174 28.8506 22.2901C28.837 22.4258 28.8972 22.4858 29.0312 22.4701L32.4482 22.0657C32.5201 22.0559 32.556 22.0146 32.556 21.9418V15.7908C32.5562 15.7479 32.544 15.706 32.5209 15.6701C32.4977 15.6343 32.4647 15.6061 32.4259 15.5891C32.3871 15.5721 32.3442 15.5671 32.3026 15.5746C32.261 15.5821 32.2225 15.6019 32.1919 15.6314ZM37.9102 21.7234C37.7645 20.4188 36.8906 18.6685 36.5614 18.0044C36.142 17.1465 35.5797 16.3742 34.8748 15.6875C34.5874 15.4061 34.4436 15.4681 34.4436 15.8734V21.9418C34.4436 22.0146 34.4796 22.0549 34.5514 22.0628L37.9946 22.4731C38.1461 22.4908 38.2044 22.4248 38.1694 22.2753C38.1422 22.1572 38.0898 22.052 38.0121 21.9595C37.9558 21.8906 37.9218 21.8119 37.9102 21.7234ZM28.9322 16.5346C29.0234 16.4795 29.0875 16.4037 29.1244 16.3073C29.1292 16.2962 29.1305 16.284 29.1281 16.2722C29.1258 16.2604 29.12 16.2496 29.1114 16.2412C29.1028 16.2329 29.092 16.2274 29.0802 16.2255C29.0685 16.2236 29.0565 16.2253 29.0458 16.2305C25.9113 17.7653 23.6363 20.6962 22.2729 23.8662C22.2681 23.8774 22.2665 23.8898 22.2684 23.9019C22.2702 23.914 22.2754 23.9254 22.2833 23.9346C22.2912 23.9439 22.3015 23.9507 22.3131 23.9543C22.3247 23.9578 22.337 23.958 22.3487 23.9547L26.4007 22.8449C26.4914 22.8206 26.5744 22.7731 26.6417 22.7069C26.709 22.6408 26.7585 22.5582 26.7853 22.4672C27.3824 20.5014 27.8631 18.6833 28.8273 16.8504C28.8331 16.8386 28.836 16.8268 28.836 16.8149L28.8419 16.691C28.8457 16.6241 28.8758 16.5719 28.9322 16.5346ZM37.9393 16.3663C38.7297 17.9149 39.3541 19.4576 39.8124 20.9943C39.9027 21.2954 39.8969 21.682 40.1212 22.0421C40.1678 22.1189 40.1891 22.2025 40.1853 22.293C40.1678 22.6354 40.3387 22.843 40.698 22.9158C42.0205 23.1893 43.3313 23.5474 44.6306 23.9901C44.7393 24.0275 44.7714 23.9921 44.7267 23.8839C43.4537 20.8379 41.0592 17.7093 38.0354 16.266C37.9073 16.203 37.8752 16.2364 37.9393 16.3663ZM17.3819 25.8083C17.1683 26.2943 17.0023 26.6406 16.8838 26.8472C16.8706 26.8714 16.8656 26.8994 16.8696 26.9269C16.8736 26.9543 16.8864 26.9796 16.9058 26.9987C16.9253 27.0177 16.9504 27.0294 16.977 27.032C17.0037 27.0345 17.0303 27.0276 17.0528 27.0125C17.5276 26.6997 17.9034 26.313 18.3899 26.0297C19.0628 25.6371 19.5551 25.2829 19.858 24.4949C20.5844 22.6157 21.4835 20.9137 22.5555 19.3887C22.8818 18.9223 22.8216 18.8633 22.3749 19.2116C20.2581 20.8625 18.5938 23.0614 17.3819 25.8083ZM50.0488 26.803C49.0992 23.9724 46.8765 20.9884 44.7529 19.3267C44.1917 18.8879 44.1169 18.9597 44.5286 19.5422C45.5734 21.0219 46.4609 22.719 47.1911 24.6336C47.5756 25.6371 49.0729 26.2805 49.8391 26.9476C50.0818 27.1581 50.1517 27.1099 50.0488 26.803ZM28.1602 26.1094C27.9213 27.042 27.9942 27.8862 27.8456 28.6801C27.6475 29.7407 27.6009 30.8239 27.7058 31.9298C27.7174 32.042 27.7796 32.098 27.8922 32.098H32.2618C32.339 32.098 32.4131 32.0669 32.4678 32.0116C32.5224 31.9562 32.5531 31.8812 32.5531 31.8029L32.556 24.3502C32.556 24.2518 32.5074 24.2027 32.4103 24.2027C31.6588 24.1997 31.0121 24.1702 30.2256 24.3237C29.6546 24.4358 29.0681 24.5037 28.4661 24.5273C28.4191 24.5288 28.3744 24.5481 28.341 24.5815C28.3075 24.6149 28.2877 24.6598 28.2855 24.7074C28.2505 25.4472 28.2088 25.9146 28.1602 26.1094ZM34.4407 24.2735L34.4495 31.8029C34.4495 31.8812 34.4799 31.9562 34.5339 32.0116C34.588 32.0669 34.6614 32.098 34.7379 32.098H39.1686C39.2482 32.098 39.29 32.0577 39.2939 31.977C39.4075 30.088 39.0987 28.9428 39.0375 27.4169C39.0026 26.5255 38.6559 25.7699 38.752 24.8756C38.7572 24.826 38.7517 24.7758 38.7357 24.7286C38.7198 24.6813 38.6938 24.6382 38.6597 24.6022C38.6255 24.5662 38.584 24.5382 38.5381 24.5202C38.4922 24.5022 38.4429 24.4945 38.3937 24.4978C38.0927 24.5195 37.7519 24.486 37.3713 24.3975C36.4119 24.1751 35.4448 24.123 34.4699 24.241C34.4617 24.2424 34.4544 24.2465 34.449 24.2524C34.4437 24.2584 34.4408 24.2658 34.4407 24.2735ZM25.8385 25.0704C24.3703 25.4364 22.806 25.9086 21.5068 26.5875C21.4194 26.6328 21.3544 26.7006 21.3116 26.7912L21.0203 27.3933C20.9796 27.4759 20.9631 27.5615 20.9708 27.6501C21.0019 28.022 20.9281 28.3683 20.7494 28.689C20.697 28.7815 20.6737 28.8808 20.6795 28.9871C20.7436 30.0644 20.2979 30.8997 20.4115 31.977C20.4212 32.0577 20.4659 32.098 20.5455 32.098H25.4889C25.588 32.098 25.6356 32.0479 25.6317 31.9475C25.5909 30.4304 25.8793 28.9901 25.9288 27.4759C25.9492 26.7971 26.3366 26.0533 26.1968 25.3036C26.158 25.097 26.0385 25.0193 25.8385 25.0704ZM42.0962 25.3538C41.7408 25.2593 41.4058 24.9819 40.9193 25.0999C40.8222 25.1235 40.7727 25.1865 40.7708 25.2888C40.7475 26.2097 41.0679 26.9683 41.0621 27.8714C41.0475 29.2409 41.3796 30.5573 41.3679 31.9505C41.366 32.0488 41.4146 32.098 41.5136 32.098L46.4629 32.101C46.558 32.101 46.6075 32.0528 46.6114 31.9564C46.6386 31.3011 46.5454 30.6636 46.3318 30.0438C46.3026 29.9572 46.2939 29.8676 46.3056 29.7752C46.4075 29.0343 46.1104 28.447 46.0143 27.7711C45.9657 27.4189 45.854 27.0814 45.6793 26.7587C45.6385 26.682 45.5792 26.6259 45.5016 26.5905C44.4063 26.0769 43.2711 25.6647 42.0962 25.3538ZM17.8014 29.0019C17.0829 29.6197 16.4789 30.5258 15.9895 31.7202C15.9728 31.7619 15.9665 31.807 15.971 31.8517C15.9756 31.8964 15.9909 31.9393 16.0156 31.9766C16.0404 32.0139 16.0738 32.0445 16.1129 32.0657C16.152 32.0868 16.1957 32.098 16.24 32.098H18.0053C18.252 32.098 18.384 31.9741 18.4015 31.7261C18.4209 31.4329 18.4714 31.0738 18.553 30.6488C18.6899 29.9493 18.518 29.117 18.8734 28.4293C19.0016 28.1853 18.9433 28.1253 18.6986 28.2492C18.3636 28.4175 18.0694 28.7687 17.8014 29.0019ZM51.0276 31.7822C50.4945 30.3743 49.539 29.1465 48.4263 28.2846C48.1369 28.0623 48.0446 28.1262 48.1495 28.4765C48.4729 29.5715 48.3767 30.7551 48.6214 31.797C48.668 31.9996 48.7943 32.101 49.0001 32.101L50.8091 32.1039C50.8468 32.1041 50.8839 32.095 50.9173 32.0772C50.9506 32.0595 50.9793 32.0337 51.0008 32.0021C51.0222 31.9704 51.0359 31.9339 51.0406 31.8956C51.0452 31.8574 51.0408 31.8184 51.0276 31.7822ZM16.0099 34.4416C16.3808 35.3152 16.7362 35.9488 17.0761 36.3423C17.5946 36.9405 18.1092 37.4403 18.62 37.8417C18.9929 38.1369 19.0696 38.072 18.8501 37.6469C18.5239 37.0123 18.6753 36.1977 18.5588 35.5543C18.4792 35.1175 18.4306 34.7505 18.4132 34.4534C18.3976 34.1877 18.2588 34.0549 17.9966 34.0549L16.2604 34.0579C16.2153 34.0575 16.1709 34.0686 16.1311 34.0901C16.0913 34.1116 16.0574 34.1428 16.0325 34.1809C16.0076 34.219 15.9925 34.2628 15.9886 34.3083C15.9846 34.3538 15.992 34.3996 16.0099 34.4416ZM21.4893 39.5153C22.7973 40.1734 24.2888 40.69 25.722 41.0501C25.9919 41.1189 26.156 41.0156 26.2143 40.7401C26.3512 40.0938 25.9172 39.0725 25.9055 38.3464C25.8822 36.8943 25.5851 35.6517 25.6375 34.232C25.6414 34.1139 25.5851 34.0549 25.4686 34.0549L20.5543 34.0608C20.4552 34.0608 20.4028 34.111 20.3969 34.2113C20.3542 34.8587 20.4445 35.4854 20.6679 36.0915C20.7041 36.1862 20.7152 36.288 20.6999 36.3866C20.5863 37.1157 20.8893 37.6942 20.9766 38.3612C21.0233 38.7075 21.1359 39.0361 21.3146 39.347C21.3553 39.4218 21.4136 39.4779 21.4893 39.5153ZM28.0029 39.3647C28.1874 40.2463 28.2835 40.9261 28.2913 41.4042C28.2952 41.5125 28.3486 41.5774 28.4515 41.599C28.7719 41.6699 29.1157 41.5961 29.4186 41.6728C30.3974 41.9188 31.4044 41.9877 32.4395 41.8794C32.5152 41.8716 32.5531 41.8293 32.5531 41.7525V34.3707C32.5531 34.2885 32.5209 34.2097 32.4635 34.1516C32.4061 34.0935 32.3283 34.0608 32.2472 34.0608L27.9068 34.0579C27.8536 34.0577 27.8023 34.0781 27.7634 34.1148C27.7244 34.1515 27.7007 34.2018 27.697 34.2556C27.6116 35.4264 27.6631 36.4939 27.8514 37.458C27.9825 38.128 27.8922 38.8423 28.0029 39.3647ZM38.8948 39.8075C39.1191 38.9722 39.0055 38.131 39.1628 37.3105C39.3609 36.2951 39.4016 35.264 39.2851 34.2172C39.2735 34.111 39.2152 34.0579 39.1103 34.0579L34.7903 34.0608C34.6991 34.0608 34.6117 34.0972 34.5472 34.1619C34.4828 34.2267 34.4466 34.3145 34.4466 34.4061V41.7614C34.4466 41.848 34.4893 41.8932 34.5747 41.8971C35.1884 41.9306 35.8011 41.9286 36.4129 41.8912C37.0333 41.8499 37.7092 41.5341 38.4433 41.6256C38.4812 41.6308 38.5199 41.6275 38.5565 41.616C38.5931 41.6044 38.6268 41.5848 38.6551 41.5587C38.6834 41.5325 38.7057 41.5003 38.7205 41.4645C38.7352 41.4286 38.742 41.3899 38.7404 41.3511C38.7229 40.7874 38.7375 40.3948 38.8948 39.8075ZM46.0696 38.1694C46.157 37.644 46.3959 37.0212 46.3026 36.3837C46.2874 36.285 46.2974 36.1843 46.3318 36.0915C46.5435 35.4874 46.6386 34.8656 46.6173 34.2261C46.6134 34.112 46.5551 34.0549 46.4425 34.0549L41.5282 34.0608C41.4175 34.0608 41.3641 34.1169 41.3679 34.229C41.4 35.631 41.1116 36.8648 41.097 38.3258C41.0912 39.1375 40.6455 39.9905 40.7824 40.7608C40.7907 40.8085 40.8085 40.8539 40.8346 40.8944C40.8607 40.9349 40.8947 40.9696 40.9345 40.9963C40.9743 41.0231 41.019 41.0414 41.066 41.0501C41.1129 41.0589 41.1612 41.0578 41.2077 41.0471C42.6934 40.7067 44.1227 40.202 45.4957 39.533C45.5845 39.489 45.6571 39.4165 45.7026 39.3264C45.8812 38.9564 46.0036 38.5708 46.0696 38.1694ZM48.4729 37.7827C49.4983 36.9917 50.4625 35.8435 50.9985 34.3855C51.0121 34.3484 51.0167 34.3085 51.0118 34.2692C51.0069 34.2299 50.9927 34.1924 50.9703 34.1599C50.948 34.1274 50.9182 34.1009 50.8835 34.0826C50.8489 34.0643 50.8103 34.0548 50.7713 34.0549H48.9623C48.7506 34.0549 48.6302 34.1612 48.601 34.3737C48.5525 34.7377 48.4894 35.1726 48.4117 35.6782C48.333 36.2036 48.4612 37.0005 48.1845 37.5377C47.9145 38.0572 48.0107 38.1389 48.4729 37.7827ZM17.8539 39.6776C17.5956 39.4611 17.3392 39.2978 17.0848 39.1876C16.9178 39.1148 16.8673 39.164 16.9333 39.3352C18.1801 42.5937 20.0678 44.9608 22.6808 47.2719C22.9798 47.5375 23.0041 47.512 22.7536 47.1952C22.7051 47.1322 22.672 47.0614 22.6546 46.9827C22.6351 46.8862 22.5963 46.7977 22.538 46.717C21.3825 45.0779 20.4688 43.31 19.7969 41.4131C19.692 41.1091 19.4764 40.7992 19.2317 40.6546C18.7462 40.3653 18.2869 40.0396 17.8539 39.6776ZM49.976 39.5241C50.0362 39.4729 50.0702 39.4297 50.0779 39.3942C50.1323 39.0676 50.0343 39.0115 49.7837 39.226C49.1225 39.7956 47.5582 40.5601 47.2552 41.36C46.358 43.7005 45.4608 45.1143 44.3189 46.9797C44.1285 47.2926 44.1771 47.3368 44.4645 47.1125C46.7338 45.3386 48.6185 42.6705 49.7138 40.1971C49.7896 40.0239 49.8342 39.8773 49.8478 39.7573C49.8595 39.6628 49.9022 39.5851 49.976 39.5241ZM29.0545 49.7453C27.9981 47.7992 27.2426 45.7371 26.7882 43.5589C26.7759 43.5021 26.7485 43.4499 26.7088 43.4082C26.6692 43.3665 26.619 43.3369 26.5639 43.3227L24.1256 42.7118C24.0324 42.6882 23.945 42.6518 23.8635 42.6026C23.7159 42.5121 23.5537 42.4786 23.377 42.5022C23.324 42.5086 23.2706 42.5038 23.2203 42.488C23.1701 42.4722 23.1242 42.4459 23.0857 42.4107C22.8876 42.2277 22.6439 42.148 22.3545 42.1716C22.2613 42.1795 22.2331 42.2267 22.27 42.3133C23.5838 45.3091 25.9463 48.426 28.9496 49.8604C28.9652 49.8675 28.9826 49.8694 28.9994 49.8659C29.0161 49.8625 29.0313 49.8537 29.0429 49.841C29.0545 49.8283 29.0618 49.8122 29.0639 49.7951C29.066 49.7779 29.0627 49.7605 29.0545 49.7453ZM38.0471 49.8634C41.0155 48.364 43.4013 45.4065 44.6509 42.4343C44.7694 42.1549 44.6888 42.0693 44.4092 42.1775C43.308 42.6045 42.2205 42.9135 41.1466 43.1043C40.8572 43.1555 40.5863 43.2627 40.3338 43.426C40.2503 43.4811 40.1988 43.5569 40.1794 43.6533C39.7172 45.7942 38.9705 47.8278 37.9393 49.7542C37.8597 49.9057 37.8956 49.9421 38.0471 49.8634ZM32.2822 50.5363C32.4628 50.6918 32.5531 50.6495 32.5531 50.4094L32.556 44.1787C32.556 44.1079 32.521 44.0685 32.4511 44.0606L29.104 43.6799C29.0696 43.6761 29.0348 43.6812 29.0028 43.6946C28.9707 43.708 28.9426 43.7293 28.9208 43.7567C28.8991 43.784 28.8844 43.8164 28.8783 43.851C28.8721 43.8855 28.8746 43.9211 28.8856 43.9544C29.6954 46.3245 30.2926 48.8303 32.2822 50.5363ZM34.8253 50.492C36.6313 48.6532 37.514 46.2477 38.1024 43.8304C38.1238 43.7438 38.0908 43.6976 38.0034 43.6917C37.6713 43.6641 37.4062 43.675 37.2081 43.7242C36.3575 43.9327 35.4865 44.0173 34.5951 43.978C34.4941 43.974 34.4436 44.0232 34.4436 44.1256L34.4466 50.3327C34.4466 50.6967 34.5728 50.7498 34.8253 50.492Z" fill="#3A4261"/>
<path d="M53.0959 32.858C53.0959 35.4658 52.5889 38.048 51.604 40.4573C50.619 42.8666 49.1754 45.0557 47.3555 46.8997C45.5355 48.7437 43.375 50.2064 40.9971 51.2043C38.6192 52.2023 36.0707 52.7159 33.4969 52.7159C28.2989 52.7159 23.3139 50.6238 19.6384 46.8997C15.9628 43.1756 13.8979 38.1246 13.8979 32.858C13.8979 27.5913 15.9628 22.5404 19.6384 18.8163C23.3139 15.0922 28.2989 13 33.4969 13C36.0707 13 38.6192 13.5136 40.9971 14.5116C43.375 15.5096 45.5355 16.9723 47.3555 18.8163C49.1754 20.6602 50.619 22.8494 51.604 25.2587C52.5889 27.6679 53.0959 30.2502 53.0959 32.858ZM32.1919 15.4114C30.5635 16.958 29.5818 19.3635 29.0603 21.5181C29.039 21.6106 29.0021 21.6962 28.9496 21.7749C28.8953 21.8556 28.8623 21.954 28.8506 22.0701C28.837 22.2059 28.8972 22.2659 29.0312 22.2501L32.4482 21.8458C32.5201 21.8359 32.556 21.7946 32.556 21.7218V15.5708C32.5562 15.528 32.544 15.486 32.5209 15.4502C32.4977 15.4143 32.4647 15.3861 32.4259 15.3692C32.3871 15.3522 32.3442 15.3471 32.3026 15.3546C32.261 15.3621 32.2225 15.3819 32.1919 15.4114ZM37.9102 21.5034C37.7645 20.1988 36.8906 18.4485 36.5614 17.7844C36.142 16.9265 35.5797 16.1542 34.8748 15.4675C34.5874 15.1861 34.4436 15.2481 34.4436 15.6534V21.7218C34.4436 21.7946 34.4796 21.8349 34.5514 21.8428L37.9946 22.2531C38.1461 22.2708 38.2044 22.2049 38.1694 22.0553C38.1422 21.9373 38.0898 21.832 38.0121 21.7395C37.9558 21.6706 37.9218 21.5919 37.9102 21.5034ZM28.9322 16.3146C29.0234 16.2595 29.0875 16.1837 29.1244 16.0873C29.1292 16.0763 29.1305 16.064 29.1281 16.0522C29.1258 16.0404 29.12 16.0296 29.1114 16.0213C29.1028 16.0129 29.092 16.0074 29.0802 16.0055C29.0685 16.0036 29.0565 16.0054 29.0458 16.0106C25.9113 17.5454 23.6363 20.4763 22.2729 23.6462C22.2681 23.6574 22.2665 23.6698 22.2684 23.682C22.2702 23.6941 22.2754 23.7054 22.2833 23.7147C22.2912 23.7239 22.3015 23.7307 22.3131 23.7343C22.3247 23.7378 22.337 23.738 22.3487 23.7348L26.4007 22.625C26.4914 22.6006 26.5744 22.5531 26.6417 22.487C26.709 22.4208 26.7585 22.3382 26.7853 22.2472C27.3824 20.2815 27.8631 18.4633 28.8273 16.6304C28.8331 16.6186 28.836 16.6068 28.836 16.595L28.8419 16.471C28.8457 16.4041 28.8758 16.352 28.9322 16.3146ZM37.9393 16.1463C38.7297 17.6949 39.3541 19.2376 39.8124 20.7744C39.9027 21.0754 39.8969 21.4621 40.1212 21.8222C40.1678 21.8989 40.1891 21.9825 40.1853 22.073C40.1678 22.4154 40.3387 22.623 40.698 22.6958C42.0205 22.9693 43.3313 23.3274 44.6306 23.7702C44.7393 23.8076 44.7714 23.7721 44.7267 23.6639C43.4537 20.6179 41.0592 17.4893 38.0354 16.046C37.9073 15.983 37.8752 16.0165 37.9393 16.1463ZM17.3819 25.5883C17.1683 26.0743 17.0023 26.4207 16.8838 26.6273C16.8706 26.6514 16.8656 26.6795 16.8696 26.7069C16.8736 26.7344 16.8864 26.7596 16.9058 26.7787C16.9253 26.7978 16.9504 26.8095 16.977 26.812C17.0037 26.8145 17.0303 26.8077 17.0528 26.7926C17.5276 26.4797 17.9034 26.093 18.3899 25.8097C19.0628 25.4171 19.5551 25.0629 19.858 24.2749C20.5844 22.3957 21.4835 20.6937 22.5555 19.1687C22.8818 18.7024 22.8216 18.6433 22.3749 18.9916C20.2581 20.6425 18.5938 22.8414 17.3819 25.5883ZM50.0488 26.583C49.0992 23.7525 46.8765 20.7685 44.7529 19.1067C44.1917 18.6679 44.1169 18.7398 44.5286 19.3222C45.5734 20.8019 46.4609 22.499 47.1911 24.4136C47.5756 25.4171 49.0729 26.0606 49.8391 26.7276C50.0818 26.9382 50.1517 26.89 50.0488 26.583ZM28.1602 25.8894C27.9213 26.8221 27.9942 27.6662 27.8456 28.4602C27.6475 29.5208 27.6009 30.604 27.7058 31.7098C27.7174 31.822 27.7796 31.8781 27.8922 31.8781H32.2618C32.339 31.8781 32.4131 31.847 32.4678 31.7916C32.5224 31.7363 32.5531 31.6612 32.5531 31.5829L32.556 24.1303C32.556 24.0319 32.5074 23.9827 32.4103 23.9827C31.6588 23.9797 31.0121 23.9502 30.2256 24.1037C29.6546 24.2159 29.0681 24.2837 28.4661 24.3074C28.4191 24.3088 28.3744 24.3281 28.341 24.3615C28.3075 24.3949 28.2877 24.4399 28.2855 24.4874C28.2505 25.2273 28.2088 25.6946 28.1602 25.8894ZM34.4407 24.0535L34.4495 31.5829C34.4495 31.6612 34.4799 31.7363 34.5339 31.7916C34.588 31.847 34.6614 31.8781 34.7379 31.8781H39.1686C39.2482 31.8781 39.29 31.8377 39.2939 31.757C39.4075 29.8681 39.0987 28.7229 39.0375 27.1969C39.0026 26.3055 38.6559 25.55 38.752 24.6556C38.7572 24.606 38.7517 24.5558 38.7357 24.5086C38.7198 24.4614 38.6938 24.4182 38.6597 24.3822C38.6255 24.3463 38.584 24.3183 38.5381 24.3002C38.4922 24.2822 38.4429 24.2745 38.3937 24.2778C38.0927 24.2995 37.7519 24.266 37.3713 24.1775C36.4119 23.9551 35.4448 23.903 34.4699 24.0211C34.4617 24.0225 34.4544 24.0265 34.449 24.0324C34.4437 24.0384 34.4408 24.0459 34.4407 24.0535ZM25.8385 24.8504C24.3703 25.2164 22.806 25.6887 21.5068 26.3675C21.4194 26.4128 21.3544 26.4807 21.3116 26.5712L21.0203 27.1733C20.9796 27.2559 20.9631 27.3415 20.9708 27.4301C21.0019 27.802 20.9281 28.1483 20.7494 28.469C20.697 28.5615 20.6737 28.6609 20.6795 28.7671C20.7436 29.8444 20.2979 30.6797 20.4115 31.757C20.4212 31.8377 20.4659 31.8781 20.5455 31.8781H25.4889C25.588 31.8781 25.6356 31.8279 25.6317 31.7275C25.5909 30.2104 25.8793 28.7701 25.9288 27.2559C25.9492 26.5771 26.3366 25.8333 26.1968 25.0836C26.158 24.877 26.0385 24.7993 25.8385 24.8504ZM42.0962 25.1338C41.7408 25.0393 41.4058 24.7619 40.9193 24.88C40.8222 24.9036 40.7727 24.9665 40.7708 25.0689C40.7475 25.9897 41.0679 26.7483 41.0621 27.6515C41.0475 29.021 41.3796 30.3374 41.3679 31.7305C41.366 31.8289 41.4146 31.8781 41.5136 31.8781L46.4629 31.881C46.558 31.881 46.6075 31.8328 46.6114 31.7364C46.6386 31.0811 46.5454 30.4436 46.3318 29.8238C46.3026 29.7372 46.2939 29.6477 46.3056 29.5552C46.4075 28.8144 46.1104 28.227 46.0143 27.5511C45.9657 27.1989 45.854 26.8614 45.6793 26.5387C45.6385 26.462 45.5792 26.4059 45.5016 26.3705C44.4063 25.8569 43.2711 25.4447 42.0962 25.1338ZM17.8014 28.7819C17.0829 29.3997 16.4789 30.3059 15.9895 31.5003C15.9728 31.5419 15.9665 31.5871 15.971 31.6318C15.9756 31.6765 15.9909 31.7193 16.0156 31.7566C16.0404 31.794 16.0738 31.8245 16.1129 31.8457C16.152 31.8669 16.1957 31.878 16.24 31.8781H18.0053C18.252 31.8781 18.384 31.7541 18.4015 31.5062C18.4209 31.213 18.4714 30.8539 18.553 30.4289C18.6899 29.7293 18.518 28.897 18.8734 28.2093C19.0016 27.9653 18.9433 27.9053 18.6986 28.0292C18.3636 28.1975 18.0694 28.5487 17.8014 28.7819ZM51.0276 31.5622C50.4945 30.1544 49.539 28.9265 48.4263 28.0647C48.1369 27.8423 48.0446 27.9063 48.1495 28.2565C48.4729 29.3515 48.3767 30.5351 48.6214 31.577C48.668 31.7797 48.7943 31.881 49.0001 31.881L50.8091 31.884C50.8468 31.8841 50.8839 31.875 50.9173 31.8572C50.9506 31.8395 50.9793 31.8137 51.0008 31.7821C51.0222 31.7505 51.0359 31.714 51.0406 31.6757C51.0452 31.6374 51.0408 31.5985 51.0276 31.5622ZM16.0099 34.2216C16.3808 35.0952 16.7362 35.7288 17.0761 36.1224C17.5946 36.7206 18.1092 37.2204 18.62 37.6218C18.9929 37.9169 19.0696 37.852 18.8501 37.427C18.5239 36.7924 18.6753 35.9778 18.5588 35.3343C18.4792 34.8975 18.4306 34.5305 18.4132 34.2334C18.3976 33.9678 18.2588 33.8349 17.9966 33.8349L16.2604 33.8379C16.2153 33.8375 16.1709 33.8486 16.1311 33.8701C16.0913 33.8916 16.0574 33.9228 16.0325 33.9609C16.0076 33.999 15.9925 34.0428 15.9886 34.0883C15.9846 34.1339 15.992 34.1797 16.0099 34.2216ZM21.4893 39.2953C22.7973 39.9535 24.2888 40.47 25.722 40.8301C25.9919 40.899 26.156 40.7957 26.2143 40.5202C26.3512 39.8738 25.9172 38.8526 25.9055 38.1265C25.8822 36.6743 25.5851 35.4317 25.6375 34.012C25.6414 33.894 25.5851 33.8349 25.4686 33.8349L20.5543 33.8408C20.4552 33.8408 20.4028 33.891 20.3969 33.9914C20.3542 34.6387 20.4445 35.2654 20.6679 35.8715C20.7041 35.9662 20.7152 36.0681 20.6999 36.1666C20.5863 36.8957 20.8893 37.4742 20.9766 38.1412C21.0233 38.4875 21.1359 38.8161 21.3146 39.127C21.3553 39.2018 21.4136 39.2579 21.4893 39.2953ZM28.0029 39.1448C28.1874 40.0263 28.2835 40.7061 28.2913 41.1843C28.2952 41.2925 28.3486 41.3574 28.4515 41.3791C28.7719 41.4499 29.1157 41.3761 29.4186 41.4529C30.3974 41.6988 31.4044 41.7677 32.4395 41.6595C32.5152 41.6516 32.5531 41.6093 32.5531 41.5326V34.1507C32.5531 34.0686 32.5209 33.9897 32.4635 33.9316C32.4061 33.8735 32.3283 33.8408 32.2472 33.8408L27.9068 33.8379C27.8536 33.8378 27.8023 33.8581 27.7634 33.8948C27.7244 33.9315 27.7007 33.9819 27.697 34.0356C27.6116 35.2064 27.6631 36.2739 27.8514 37.2381C27.9825 37.9081 27.8922 38.6223 28.0029 39.1448ZM38.8948 39.5875C39.1191 38.7522 39.0055 37.911 39.1628 37.0905C39.3609 36.0752 39.4016 35.0441 39.2851 33.9973C39.2735 33.891 39.2152 33.8379 39.1103 33.8379L34.7903 33.8408C34.6991 33.8408 34.6117 33.8772 34.5472 33.942C34.4828 34.0067 34.4466 34.0946 34.4466 34.1862V41.5414C34.4466 41.628 34.4893 41.6732 34.5747 41.6772C35.1884 41.7106 35.8011 41.7087 36.4129 41.6713C37.0333 41.63 37.7092 41.3141 38.4433 41.4056C38.4812 41.4108 38.5199 41.4076 38.5565 41.396C38.5931 41.3844 38.6268 41.3649 38.6551 41.3387C38.6834 41.3125 38.7057 41.2804 38.7205 41.2445C38.7352 41.2087 38.742 41.17 38.7404 41.1311C38.7229 40.5674 38.7375 40.1748 38.8948 39.5875ZM46.0696 37.9494C46.157 37.424 46.3959 36.8012 46.3026 36.1637C46.2874 36.065 46.2974 35.9643 46.3318 35.8715C46.5435 35.2674 46.6386 34.6456 46.6173 34.0061C46.6134 33.892 46.5551 33.8349 46.4425 33.8349L41.5282 33.8408C41.4175 33.8408 41.3641 33.8969 41.3679 34.0091C41.4 35.4111 41.1116 36.6448 41.097 38.1058C41.0912 38.9175 40.6455 39.7705 40.7824 40.5408C40.7907 40.5885 40.8085 40.6339 40.8346 40.6744C40.8607 40.7149 40.8947 40.7496 40.9345 40.7764C40.9743 40.8031 41.019 40.8214 41.066 40.8302C41.1129 40.8389 41.1612 40.8379 41.2077 40.8271C42.6934 40.4867 44.1227 39.982 45.4957 39.313C45.5845 39.2691 45.6571 39.1966 45.7026 39.1064C45.8812 38.7365 46.0036 38.3508 46.0696 37.9494ZM48.4729 37.5627C49.4983 36.7717 50.4625 35.6236 50.9985 34.1655C51.0121 34.1284 51.0167 34.0885 51.0118 34.0492C51.0069 34.0099 50.9927 33.9724 50.9703 33.9399C50.948 33.9074 50.9182 33.8809 50.8835 33.8626C50.8489 33.8443 50.8103 33.8348 50.7713 33.8349H48.9623C48.7506 33.8349 48.6302 33.9412 48.601 34.1537C48.5525 34.5177 48.4894 34.9526 48.4117 35.4583C48.333 35.9837 48.4612 36.7806 48.1845 37.3178C47.9145 37.8372 48.0107 37.9189 48.4729 37.5627ZM17.8539 39.4576C17.5956 39.2412 17.3392 39.0779 17.0848 38.9677C16.9178 38.8949 16.8673 38.9441 16.9333 39.1152C18.1801 42.3737 20.0678 44.7409 22.6808 47.0519C22.9798 47.3176 23.0041 47.292 22.7536 46.9752C22.7051 46.9122 22.672 46.8414 22.6546 46.7627C22.6351 46.6663 22.5963 46.5777 22.538 46.497C21.3825 44.858 20.4688 43.09 19.7969 41.1931C19.692 40.8891 19.4764 40.5792 19.2317 40.4346C18.7462 40.1453 18.2869 39.8197 17.8539 39.4576ZM49.976 39.3041C50.0362 39.253 50.0702 39.2097 50.0779 39.1743C50.1323 38.8476 50.0343 38.7916 49.7837 39.006C49.1225 39.5757 47.5582 40.3401 47.2552 41.14C46.358 43.4806 45.4608 44.8944 44.3189 46.7597C44.1285 47.0726 44.1771 47.1169 44.4645 46.8926C46.7338 45.1187 48.6185 42.4505 49.7138 39.9771C49.7896 39.8039 49.8342 39.6573 49.8478 39.5373C49.8595 39.4429 49.9022 39.3651 49.976 39.3041ZM29.0545 49.5253C27.9981 47.5793 27.2426 45.5171 26.7882 43.3389C26.7759 43.2821 26.7485 43.2299 26.7088 43.1882C26.6692 43.1465 26.619 43.1169 26.5639 43.1028L24.1256 42.4918C24.0324 42.4682 23.945 42.4318 23.8635 42.3826C23.7159 42.2921 23.5537 42.2586 23.377 42.2822C23.324 42.2887 23.2706 42.2838 23.2203 42.268C23.1701 42.2523 23.1242 42.2259 23.0857 42.1907C22.8876 42.0078 22.6439 41.9281 22.3545 41.9517C22.2613 41.9595 22.2331 42.0068 22.27 42.0933C23.5838 45.0892 25.9463 48.206 28.9496 49.6404C28.9652 49.6475 28.9826 49.6494 28.9994 49.646C29.0161 49.6425 29.0313 49.6338 29.0429 49.6211C29.0545 49.6083 29.0618 49.5923 29.0639 49.5751C29.066 49.5579 29.0627 49.5405 29.0545 49.5253ZM38.0471 49.6434C41.0155 48.144 43.4013 45.1866 44.6509 42.2144C44.7694 41.9349 44.6888 41.8493 44.4092 41.9576C43.308 42.3846 42.2205 42.6935 41.1466 42.8844C40.8572 42.9355 40.5863 43.0428 40.3338 43.2061C40.2503 43.2612 40.1988 43.3369 40.1794 43.4333C39.7172 45.5742 38.9705 47.6078 37.9393 49.5342C37.8597 49.6857 37.8956 49.7221 38.0471 49.6434ZM32.2822 50.3163C32.4628 50.4718 32.5531 50.4295 32.5531 50.1894L32.556 43.9587C32.556 43.8879 32.521 43.8485 32.4511 43.8407L29.104 43.4599C29.0696 43.4561 29.0348 43.4612 29.0028 43.4746C28.9707 43.488 28.9426 43.5094 28.9208 43.5367C28.8991 43.564 28.8844 43.5964 28.8783 43.631C28.8721 43.6655 28.8746 43.7011 28.8856 43.7344C29.6954 46.1045 30.2926 48.6103 32.2822 50.3163ZM34.8253 50.2721C36.6313 48.4333 37.514 46.0277 38.1024 43.6104C38.1238 43.5239 38.0908 43.4776 38.0034 43.4717C37.6713 43.4442 37.4062 43.455 37.2081 43.5042C36.3575 43.7128 35.4865 43.7974 34.5951 43.758C34.4941 43.7541 34.4436 43.8033 34.4436 43.9056L34.4466 50.1127C34.4466 50.4767 34.5728 50.5298 34.8253 50.2721Z" fill="#3A4261"/>
</g>
<defs>
<clipPath id="clip0_582_58">
<rect width="67" height="67" fill="white"/>
</clipPath>
</defs>
</svg>
