<svg width="67" height="67" viewBox="0 0 67 67" fill="none" xmlns="http://www.w3.org/2000/svg">
<g clip-path="url(#clip0_582_180)">
<path d="M31.7152 0H33.6492L33.6574 1.82555C33.6574 1.93405 33.6031 1.99011 33.4946 1.99372L31.8888 2.04255C31.7983 2.04617 31.7459 2.00367 31.7314 1.91506C31.6175 1.24777 31.6121 0.60942 31.7152 0Z" fill="#3A4261"/>
<path d="M38.7 0.401441C49.26 2.04253 58.149 8.57164 63.1645 17.9137C63.5985 18.7247 63.6392 19.3893 62.6817 19.7609C54.5983 22.893 46.514 26.0269 38.4288 29.1626C37.6014 29.4854 36.5598 29.5261 36.5869 28.3461C36.7985 19.3043 37.0074 10.2625 37.2135 1.22063C37.2298 0.442129 38.0354 0.295651 38.7 0.401441ZM60.9836 18.128C56.3886 9.99031 48.5303 4.29938 39.3212 2.54436C39.3057 2.5412 39.2898 2.54154 39.2744 2.54535C39.2591 2.54916 39.2447 2.55635 39.2323 2.56643C39.2199 2.5765 39.2098 2.5892 39.2026 2.60366C39.1955 2.61812 39.1915 2.63398 39.191 2.65014L38.6349 26.7674C38.6347 26.7847 38.6386 26.8018 38.6465 26.8173C38.6544 26.8327 38.6659 26.8459 38.6801 26.8558C38.6943 26.8657 38.7107 26.872 38.7279 26.8741C38.7451 26.8762 38.7625 26.874 38.7787 26.8678L60.9267 18.2799C61.0044 18.2509 61.0234 18.2003 60.9836 18.128Z" fill="#3A4261"/>
<path d="M28.6337 2.34094L25.4411 3.01636C25.3912 3.0271 25.339 3.01814 25.2955 2.99135C25.2521 2.96456 25.2206 2.92202 25.2078 2.8726L24.7982 1.30474C24.7914 1.27871 24.79 1.25157 24.794 1.22496C24.798 1.19836 24.8074 1.17285 24.8216 1.15001C24.8359 1.12716 24.8546 1.10745 24.8767 1.09208C24.8987 1.07671 24.9237 1.066 24.9501 1.06061L28.2893 0.366201C28.3153 0.360708 28.3422 0.360522 28.3683 0.365654C28.3944 0.370786 28.4192 0.381131 28.4413 0.39607C28.4633 0.411009 28.4821 0.430236 28.4965 0.452602C28.5109 0.474968 28.5207 0.500014 28.5252 0.526242L28.7884 2.1158C28.7964 2.166 28.7849 2.21738 28.7561 2.25929C28.7273 2.3012 28.6835 2.33044 28.6337 2.34094Z" fill="#3A4261"/>
<path d="M21.5281 2.16131L18.5052 3.49458C18.3955 3.54295 18.3458 3.67105 18.3942 3.7807L19.0313 5.22515C19.0797 5.33481 19.2078 5.3845 19.3174 5.33613L22.3403 4.00287C22.45 3.9545 22.4997 3.8264 22.4513 3.71674L21.8142 2.27229C21.7659 2.16264 21.6378 2.11295 21.5281 2.16131Z" fill="#3A4261"/>
<path d="M15.3331 5.29495L12.6467 7.21822C12.5492 7.28799 12.5268 7.42354 12.5965 7.52099L13.5187 8.80905C13.5885 8.9065 13.724 8.92894 13.8215 8.85917L16.5079 6.9359C16.6053 6.86614 16.6277 6.73058 16.558 6.63313L15.6358 5.34508C15.5661 5.24763 15.4305 5.22519 15.3331 5.29495Z" fill="#3A4261"/>
<path d="M34.5904 33.0144C41.7841 37.8066 48.9904 42.6069 56.2094 47.4154C57.0286 47.9606 56.7329 48.6089 56.2555 49.2925C46.0211 63.9701 24.8659 65.2694 12.9171 52.0484C5.47117 43.805 3.59679 31.6283 8.49837 21.5295C13.1775 11.8864 22.8939 5.73432 33.6708 5.80213C35.1112 5.81298 35.1438 6.33379 35.1139 7.56529C34.9204 15.985 34.7179 24.4147 34.5063 32.8544C34.5054 32.8858 34.5127 32.917 34.5274 32.945C34.5421 32.973 34.5638 32.9969 34.5904 33.0144ZM7.8121 34.6528C8.51736 49.976 22.544 61.4176 37.7695 58.8271C44.4342 57.6932 50.2174 54.0882 54.2537 48.6333C54.2611 48.6226 54.2663 48.6106 54.2691 48.5979C54.2719 48.5852 54.2722 48.5722 54.2699 48.5595C54.2676 48.5469 54.2629 48.5349 54.2559 48.5243C54.2489 48.5137 54.2398 48.5046 54.2293 48.4977L32.971 34.3653C32.8174 34.2633 32.6922 34.1241 32.6073 33.9609C32.5223 33.7977 32.4804 33.6157 32.4855 33.4322L33.1012 7.94233C33.103 7.86276 33.0641 7.82388 32.9846 7.82569C18.5538 8.08067 7.15295 20.3306 7.8121 34.6528Z" fill="#3A4261"/>
<path d="M11.379 10.6811L10.2252 9.62758C10.1334 9.54374 9.99099 9.5502 9.90715 9.64203L7.68664 12.0738C7.6028 12.1656 7.60927 12.308 7.70109 12.3919L8.85487 13.4454C8.94669 13.5293 9.0891 13.5228 9.17294 13.431L11.3934 10.9992C11.4773 10.9074 11.4708 10.765 11.379 10.6811Z" fill="#3A4261"/>
<path d="M7.1682 15.7347L5.80749 14.9236C5.70455 14.8622 5.57135 14.8959 5.50998 14.9988L3.81825 17.8367C3.75688 17.9397 3.79058 18.0729 3.89353 18.1343L5.25423 18.9454C5.35718 19.0068 5.49038 18.9731 5.55175 18.8701L7.24348 16.0322C7.30485 15.9293 7.27114 15.7961 7.1682 15.7347Z" fill="#3A4261"/>
<path d="M1.21248 24.3289L2.31106 21.0955C2.31952 21.0699 2.3331 21.0464 2.35097 21.0263C2.36884 21.0061 2.39063 20.9899 2.415 20.9784C2.43937 20.967 2.46581 20.9607 2.49272 20.9598C2.51962 20.959 2.54641 20.9636 2.57146 20.9734L4.07693 21.5729C4.12496 21.5912 4.16399 21.6275 4.18575 21.6741C4.20752 21.7207 4.21032 21.7739 4.19357 21.8225L3.13839 24.9012C3.12219 24.9494 3.0881 24.9895 3.04316 25.0132C2.99822 25.0369 2.94588 25.0425 2.89697 25.0287L1.34539 24.5838C1.31951 24.5765 1.29541 24.5639 1.27455 24.5469C1.2537 24.5299 1.23652 24.5088 1.22408 24.4849C1.21165 24.4611 1.2042 24.4349 1.20221 24.4081C1.20021 24.3813 1.2037 24.3543 1.21248 24.3289Z" fill="#3A4261"/>
<path d="M67 31.707V35.3907C66.6818 40.0906 65.547 44.381 63.5958 48.2617C63.1943 49.0619 62.4212 48.8259 61.7892 48.4082C54.0856 43.3177 46.3819 38.228 38.6783 33.1393C37.8428 32.5886 38.3935 31.6121 39.1774 31.3056C47.3874 28.0776 55.5983 24.8515 63.8101 21.6272C64.5262 21.3451 64.9792 21.9554 65.1935 22.5983C66.1808 25.5459 66.783 28.5822 67 31.707ZM62.2368 46.2897C62.2427 46.2934 62.2494 46.2958 62.2563 46.2967C62.2633 46.2976 62.2703 46.297 62.277 46.295C62.2837 46.2929 62.2899 46.2894 62.2951 46.2848C62.3003 46.2801 62.3045 46.2744 62.3073 46.268C65.4195 39.0165 65.8336 31.5985 63.5497 24.0142C63.5454 24.0004 63.5384 23.9877 63.529 23.9767C63.5196 23.9657 63.5081 23.9568 63.4951 23.9504C63.4822 23.9441 63.4681 23.9405 63.4537 23.9398C63.4392 23.9391 63.4248 23.9413 63.4113 23.9464L41.6106 32.5127C41.5973 32.5181 41.5858 32.527 41.5773 32.5385C41.5688 32.55 41.5636 32.5635 41.5622 32.5777C41.5608 32.592 41.5633 32.6063 41.5694 32.6192C41.5755 32.6321 41.5851 32.6431 41.597 32.651L62.2368 46.2897Z" fill="#3A4261"/>
<path d="M21.6326 39.6005V35.6022C21.6326 35.5118 21.5883 35.4531 21.4996 35.4259C17.2925 34.208 17.2681 28.8426 21.4861 27.7196C21.5747 27.6961 21.6235 27.6382 21.6326 27.546C21.6515 27.31 21.6054 27.112 21.6977 26.9004C22.129 25.9103 23.5747 26.3307 23.3794 27.527C23.3727 27.5649 23.3803 27.6041 23.4009 27.6367C23.4214 27.6693 23.4535 27.6931 23.4907 27.7033C25.3894 28.2096 26.4681 29.4366 26.7267 31.3842C26.8009 31.9466 26.5595 32.2839 26.0025 32.396L25.7095 32.453C25.6195 32.471 25.5266 32.4689 25.4375 32.4467C25.3484 32.4246 25.2654 32.3829 25.1943 32.3248C25.1232 32.2667 25.0659 32.1936 25.0265 32.1107C24.9871 32.0278 24.9665 31.9372 24.9663 31.8454C24.9627 30.7983 24.5006 30.0478 23.5802 29.5939C23.4626 29.5361 23.4039 29.5722 23.4039 29.7024V33.7062C23.4038 33.7478 23.4176 33.7884 23.4432 33.8213C23.4687 33.8542 23.5045 33.8776 23.5449 33.8879C27.7955 35.0028 27.7032 40.3329 23.5693 41.6133C23.5159 41.6302 23.4697 41.6648 23.4382 41.7115C23.4067 41.7583 23.3917 41.8144 23.3957 41.8709C23.5015 43.3873 21.4101 43.2543 21.6434 41.776C21.6579 41.682 21.6199 41.6232 21.5295 41.5997C19.6108 41.0825 18.5348 39.8284 18.3015 37.8374C18.2876 37.7183 18.2984 37.5977 18.3331 37.483C18.3679 37.3683 18.4258 37.2619 18.5034 37.1706C18.5811 37.0792 18.6766 37.0048 18.7842 36.952C18.8918 36.8992 19.0091 36.8691 19.1289 36.8636L19.3676 36.8527C19.4592 36.8483 19.5508 36.8625 19.6369 36.8944C19.7229 36.9263 19.8016 36.9753 19.8682 37.0384C19.9349 37.1015 19.9881 37.1774 20.0246 37.2615C20.0612 37.3457 20.0804 37.4364 20.081 37.5282C20.0918 38.5481 20.553 39.275 21.4644 39.709C21.5765 39.7615 21.6326 39.7253 21.6326 39.6005ZM21.5213 33.5624C21.5973 33.595 21.6353 33.5705 21.6353 33.4892L21.6326 29.9927C21.6308 29.5153 21.4562 29.4393 21.109 29.7648L20.5611 30.2775C20.4077 30.4207 20.2864 30.5948 20.2055 30.7885C20.1246 30.9821 20.0859 31.1907 20.0918 31.4005C20.1226 32.4512 20.5991 33.1718 21.5213 33.5624ZM23.3957 35.7758V39.7036C23.3957 39.713 23.3994 39.7219 23.406 39.7286C23.4127 39.7352 23.4216 39.7389 23.431 39.7389C23.8187 39.7389 24.1906 39.5305 24.4648 39.1597C24.739 38.7889 24.893 38.2859 24.893 37.7614V37.718C24.893 37.1936 24.739 36.6906 24.4648 36.3198C24.1906 35.9489 23.8187 35.7406 23.431 35.7406C23.4216 35.7406 23.4127 35.7443 23.406 35.7509C23.3994 35.7575 23.3957 35.7665 23.3957 35.7758Z" fill="#3A4261"/>
<path d="M0.0244008 31.1916L0.433996 27.763C0.436949 27.7381 0.444924 27.7141 0.457438 27.6925C0.469952 27.6708 0.486742 27.6519 0.506788 27.6369C0.526833 27.622 0.549715 27.6112 0.574041 27.6054C0.598366 27.5995 0.623627 27.5987 0.648287 27.6029L2.26497 27.8823C2.31152 27.8903 2.35323 27.9159 2.38149 27.9537C2.40975 27.9916 2.42242 28.0388 2.41687 28.0858L2.0344 31.3327C2.02895 31.3792 2.00602 31.4219 1.97026 31.4521C1.93449 31.4823 1.88857 31.4978 1.84181 31.4954L0.195292 31.3978C0.170289 31.3961 0.145888 31.3894 0.123576 31.378C0.101264 31.3666 0.0815093 31.3507 0.0655179 31.3315C0.0495264 31.3122 0.0376332 31.2898 0.030564 31.2658C0.0234947 31.2417 0.0213977 31.2165 0.0244008 31.1916Z" fill="#3A4261"/>
<path d="M0 35.5019V34.5037L1.84182 34.4521C1.87574 34.4513 1.90867 34.4635 1.93389 34.4862C1.95911 34.5089 1.97469 34.5404 1.97745 34.5742L2.25684 37.8537C2.26588 37.9748 2.20982 38.0435 2.08866 38.0598L0.485547 38.2795C0.366194 38.2976 0.299285 38.2461 0.284818 38.1249L0 35.5019Z" fill="#3A4261"/>
<path d="M2.86446 41.0572L3.81385 44.1847C3.82871 44.2333 3.82432 44.2857 3.8016 44.3312C3.77888 44.3766 3.73956 44.4116 3.69179 44.4289L2.17005 44.9768C2.14478 44.9856 2.11799 44.9892 2.0913 44.9874C2.0646 44.9856 2.03855 44.9784 2.01472 44.9662C1.99089 44.954 1.96978 44.9372 1.95265 44.9166C1.93552 44.896 1.92273 44.8722 1.91507 44.8466L0.924985 41.5861C0.917573 41.5608 0.915284 41.5343 0.918252 41.5081C0.92122 41.4819 0.929386 41.4566 0.94227 41.4336C0.955155 41.4106 0.972499 41.3904 0.993286 41.3742C1.01407 41.358 1.03788 41.3461 1.06332 41.3393L2.62575 40.9215C2.67536 40.9089 2.72792 40.916 2.77243 40.9413C2.81693 40.9665 2.84991 41.0081 2.86446 41.0572Z" fill="#3A4261"/>
<path d="M4.78928 47.0929L3.38683 47.8639C3.28706 47.9187 3.25064 48.0441 3.30549 48.1438L4.90761 51.0581C4.96246 51.1579 5.0878 51.1943 5.18758 51.1394L6.59002 50.3684C6.68979 50.3136 6.72621 50.1882 6.67136 50.0885L5.06925 47.1742C5.0144 47.0744 4.88905 47.038 4.78928 47.0929Z" fill="#3A4261"/>
<path d="M61.7919 51.4815L60.8452 52.8839C60.8316 52.9045 60.8139 52.9222 60.7933 52.9358C60.7728 52.9495 60.7496 52.9589 60.7253 52.9634C60.7011 52.968 60.6761 52.9676 60.652 52.9623C60.6278 52.9571 60.605 52.947 60.5848 52.9327L59.2448 51.9752C59.2059 51.9473 59.1793 51.9054 59.1707 51.8584C59.1621 51.8113 59.1722 51.7627 59.1987 51.7229L60.0938 50.391C60.1209 50.3513 60.1624 50.3236 60.2095 50.314C60.2566 50.3043 60.3056 50.3135 60.3461 50.3395L61.7376 51.2238C61.7583 51.237 61.7761 51.2542 61.7901 51.2743C61.804 51.2945 61.8138 51.3173 61.8189 51.3413C61.8239 51.3652 61.8241 51.39 61.8195 51.4141C61.8149 51.4382 61.8055 51.4611 61.7919 51.4815Z" fill="#3A4261"/>
<path d="M8.20156 52.7143L7.0029 53.7417C6.9119 53.8197 6.90136 53.9567 6.97936 54.0477L9.12944 56.5562C9.20743 56.6472 9.34443 56.6578 9.43543 56.5798L10.6341 55.5524C10.7251 55.4744 10.7356 55.3374 10.6576 55.2464L8.50755 52.7379C8.42956 52.6469 8.29256 52.6363 8.20156 52.7143Z" fill="#3A4261"/>
<path d="M58.5984 55.4338L57.4666 54.3254C57.3809 54.2416 57.2435 54.243 57.1597 54.3286L54.8481 56.6892C54.7642 56.7748 54.7657 56.9122 54.8513 56.996L55.9831 58.1044C56.0687 58.1882 56.2061 58.1868 56.29 58.1012L58.6016 55.7406C58.6855 55.655 58.684 55.5176 58.5984 55.4338Z" fill="#3A4261"/>
<path d="M15.6192 59.4826L13.0137 57.4688C12.9153 57.3928 12.7739 57.4109 12.6979 57.5093L11.7424 58.7455C11.6664 58.8439 11.6845 58.9853 11.7829 59.0613L14.3884 61.0751C14.4868 61.1511 14.6282 61.133 14.7042 61.0346L15.6597 59.7984C15.7357 59.7 15.7176 59.5586 15.6192 59.4826Z" fill="#3A4261"/>
<path d="M52.3637 58.7546L49.6124 60.6034C49.5142 60.6694 49.4881 60.8025 49.5541 60.9008L50.4376 62.2156C50.5036 62.3138 50.6368 62.34 50.735 62.274L53.4863 60.4252C53.5845 60.3592 53.6106 60.226 53.5446 60.1278L52.6611 58.8129C52.5951 58.7147 52.4619 58.6886 52.3637 58.7546Z" fill="#3A4261"/>
<path d="M20.5096 64.4339L17.4715 62.9719C17.4443 62.9589 17.4199 62.9406 17.4 62.9179C17.38 62.8953 17.3649 62.8688 17.3555 62.8402C17.3461 62.8115 17.3427 62.7812 17.3454 62.7512C17.348 62.7211 17.3568 62.6919 17.3711 62.6654L18.1279 61.2847C18.1555 61.2353 18.2009 61.1982 18.2548 61.1811C18.3087 61.164 18.3672 61.168 18.4182 61.1924L21.3071 62.584C21.3587 62.6087 21.3987 62.6524 21.4189 62.706C21.4392 62.7596 21.4379 62.8188 21.4156 62.8715L20.8107 64.3173C20.7992 64.3453 20.7822 64.3706 20.7606 64.3918C20.739 64.4129 20.7134 64.4295 20.6852 64.4404C20.657 64.4513 20.6269 64.4563 20.5967 64.4552C20.5665 64.4541 20.5369 64.4469 20.5096 64.4339Z" fill="#3A4261"/>
<path d="M46.7759 62.0988L43.678 63.3378C43.5737 63.3796 43.523 63.498 43.5647 63.6023L44.161 65.0933C44.2028 65.1976 44.3212 65.2483 44.4255 65.2066L47.5233 63.9676C47.6276 63.9258 47.6784 63.8074 47.6367 63.7031L47.0403 62.2121C46.9986 62.1078 46.8802 62.0571 46.7759 62.0988Z" fill="#3A4261"/>
<path d="M27.6176 64.4745L24.3814 63.6856C24.2722 63.659 24.1621 63.7259 24.1355 63.8351L23.7552 65.3952C23.7286 65.5044 23.7955 65.6145 23.9047 65.6411L27.1409 66.43C27.2501 66.4566 27.3601 66.3897 27.3868 66.2805L27.7671 64.7204C27.7937 64.6112 27.7268 64.5012 27.6176 64.4745Z" fill="#3A4261"/>
<path d="M40.6074 64.2181L37.3099 64.7936C37.2037 64.8121 37.1326 64.9133 37.1511 65.0195L37.4291 66.6122C37.4476 66.7184 37.5488 66.7895 37.6551 66.771L40.9525 66.1955C41.0588 66.1769 41.1299 66.0758 41.1113 65.9695L40.8334 64.3769C40.8148 64.2706 40.7137 64.1995 40.6074 64.2181Z" fill="#3A4261"/>
<path d="M34.2405 67H31.669L30.7711 66.8996C30.5776 66.8779 30.489 66.7703 30.5053 66.5769L30.6192 65.1772C30.6337 64.9963 30.7323 64.9086 30.9149 64.9141L34.0723 65.0198C34.1754 65.0235 34.2278 65.0768 34.2296 65.1799L34.2405 67Z" fill="#3A4261"/>
</g>
<defs>
<clipPath id="clip0_582_180">
<rect width="67" height="67" fill="white"/>
</clipPath>
</defs>
</svg>
