<svg width="59" height="60" viewBox="0 0 59 60" fill="none" xmlns="http://www.w3.org/2000/svg">
<g id="linkedin">
<path id="Rectangle 3776" d="M0 6C0 2.68629 2.68629 0 6 0H59V60H6C2.68629 60 0 57.3137 0 54V6Z" fill="#8CA3D2"/>
<path id="Vector" d="M19.1847 16.0018C19.1841 17.0626 18.7525 18.0797 17.9846 18.8295C17.2168 19.5792 16.1757 20.0001 15.0903 19.9996C14.0049 19.999 12.9643 19.5771 12.1972 18.8266C11.4301 18.0762 10.9995 17.0586 11 15.9978C11.0005 14.937 11.4322 13.9198 12.2001 13.1701C12.9679 12.4204 14.009 11.9995 15.0944 12C16.1797 12.0005 17.2204 12.4224 17.9875 13.1729C18.7546 13.9234 19.1852 14.941 19.1847 16.0018ZM19.3075 22.9614H11.1228V48H19.3075V22.9614ZM32.2392 22.9614H24.0955V48H32.1574V34.8607C32.1574 27.5411 41.9176 26.8612 41.9176 34.8607V48H50V32.1409C50 19.8016 35.554 20.2615 32.1574 26.3212L32.2392 22.9614Z" fill="white"/>
</g>
</svg>
