<?xml version="1.0" encoding="utf-8"?>
<!-- Generator: Adobe Illustrator 28.0.0, SVG Export Plug-In . SVG Version: 6.00 Build 0)  -->
<svg version="1.1" id="Layer_1" xmlns="http://www.w3.org/2000/svg" xmlns:xlink="http://www.w3.org/1999/xlink" x="0px" y="0px"
	 viewBox="0 0 1328 227" style="enable-background:new 0 0 1328 227;" xml:space="preserve">
<style type="text/css">
	.st0{fill-rule:evenodd;clip-rule:evenodd;fill:#050C0C;}
</style>
<g>
	<path class="st0" d="M8.8,190.4c-3.9,2.8-6.5,7.3-6.5,12.5c0,8.4,6.8,15.3,15.3,15.3c3.5,0,6.7-1.2,9.2-3.1l5.4-7.9
		c0.4-1.3,0.6-2.8,0.6-4.2c0-3.6-1.2-6.9-3.3-9.5l31.5-54.5l1.3,0.1c7.4,0,13.4-6,13.4-13.4c0-0.7-0.1-1.3-0.1-2l32.3-26.9
		c0.8,0.8,1.7,1.5,2.6,2.1L89,150.3c-4.9,2.5-8.3,7.7-8.3,13.6c0,5.3,2.7,10,6.9,12.8l7.5,2.5l0.9,0c1.8,0,3.5-0.3,5.2-0.9l0.2,0.2
		l6.9-5.4c0.8-1,1.4-2.2,1.9-3.4l79.4,33.7c-0.2,1-0.3,2-0.4,3l1.7,8.6c3,6.5,9.6,11.1,17.2,11.1c10.5,0,18.9-8.5,18.9-18.9
		c0-10.5-8.5-18.9-18.9-18.9l-1.6,0.1L180.2,150c2.1-2.1,3.3-5,3.3-8.2c0-1.5-0.3-3-0.8-4.3c14.3-13.6,23.3-32.8,23.3-54
		c0-18.7-6.9-35.8-18.3-48.9c0.6-1.5,0.9-3.2,0.9-4.9c0-7.3-5.9-13.3-13.3-13.3c-2.7,0-5.2,0.8-7.2,2.2c-10.9-6.2-23.4-9.7-36.8-9.7
		h-5.7L33.7,8.5C30.5,3.4,24.8,0,18.2,0C8.2,0,0,8.2,0,18.2c0,6.6,3.5,12.4,8.8,15.6V190.4z M22.1,188.3c-1.1-0.4-2.4-0.6-3.6-0.6
		V36.5l1.6-0.1l32.8,79.7c-2.4,2.4-3.9,5.8-3.9,9.5c0,3.7,1.5,7.1,3.9,9.5L22.1,188.3z M60.7,112.2L28.4,33.4c1.9-1.3,3.6-3,4.9-4.9
		l72.9,45.2c-2.2,2.9-3.5,6.6-3.5,10.5c0,1.7,0.2,3.3,0.7,4.9L71,115.3c-2.3-2-5.4-3.2-8.7-3.2C61.8,112.1,61.2,112.1,60.7,112.2
		 M36.5,18.2c0-0.6,0-1.3-0.1-1.9l92.8,0.5h2.2c11.4,0,22.2,2.9,31.7,8c-0.6,1.5-0.9,3.1-0.9,4.8c0,2.5,0.7,4.9,1.9,6.8l-35.4,32.4
		c-2.5-1.4-5.4-2.2-8.4-2.2c-3,0-5.8,0.8-8.3,2.1L36.3,20.6C36.4,19.8,36.5,19.1,36.5,18.2 M193,195.9l-81.8-34.4
		c-1-6.4-6-11.5-12.3-12.7l19.6-47.3l1.8,0.1c4.2,0,8-1.5,11-3.9l29.1,40.7c-0.3,1-0.4,2.1-0.4,3.2c0,6.3,5,11.5,11.2,11.8l27,37.7
		C196.1,192.5,194.4,194.1,193,195.9 M177.5,131.4c-1.7-1-3.7-1.5-5.8-1.5c-1.9,0-3.7,0.5-5.3,1.3l-29.8-40.9c0.7-1.9,1.1-4,1.1-6.1
		c0-3.7-1.1-7.1-3-9.9l35.1-32.7c1.7,0.8,3.6,1.2,5.6,1.2c2.6,0,5.1-0.8,7.1-2.1c9.7,11.6,15.5,26.4,15.5,42.6
		C198,102.2,190.1,119.3,177.5,131.4"/>
</g>
<g>
	<path d="M256.6,10.3h79.1c16.9,0,30.6,4.6,41.3,13.8c12.8,10.4,19.5,25.3,20.1,44.6c-0.4,28.4-13.4,47.7-39.1,57.9l46.8,92.7h-36.4
		l-41.9-89.3h-39.2v89.3h-30.6V10.3z M287.3,101.8h46.5c11.5-0.2,20.1-3.6,25.9-10.3c5.7-6.2,8.5-13.9,8.5-23
		c-0.2-10.9-3.6-18.8-10.2-23.7c-5.2-4.3-12.7-6.5-22.5-6.5h-48.1V101.8z"/>
	<path d="M508.6,206h-0.6c-2.7,5.1-6.8,8.8-12.5,11.2c-5.5,2.5-13.2,3.7-23,3.7c-16.1-0.2-28.5-4.6-37.2-13.2
		c-9.2-8.4-13.7-19.1-13.7-32.2c0-12.5,4-22.9,11.9-31.1c8-8.4,19.6-12.7,35-12.9h40.1v-15.7c0.2-13.1-9.7-19.5-29.6-19.1
		c-7.2,0-12.9,0.8-17.1,2.3c-4.3,1.8-7.8,4.9-10.3,9.2L429,90.2c11-14.8,27.2-22,48.7-21.7c18.1-0.2,32.6,3.3,43.4,10.6
		c10.8,7.5,16.3,20.3,16.5,38.4v101.6h-28.9V206z M508.6,156.1h-34.8c-16.9,0.4-25.2,6.4-25,17.9c0,5.1,2.2,9.4,6.5,12.9
		c4.2,3.9,11.1,5.9,20.7,5.9c12.1,0.2,20.7-1.3,25.7-4.4c4.5-3.2,6.8-10.3,6.8-21.5V156.1z"/>
	<path d="M580.6,10.3h28.9v29.8h-28.9V10.3z M580.6,70.5h28.9v148.7h-28.9V70.5z"/>
	<path d="M640.6,195.5l72.2-98.7h-70.5V70.5H748v23.8l-74.5,96.8H748v28.1H640.6V195.5z"/>
	<path d="M802,156.1c0,12,3.3,21,10,27.2c6.2,6.3,14.3,9.5,24.4,9.5c11.8,0,22.3-4.8,31.5-14.5l21,18.5
		c-14.7,16.2-32,24.2-51.9,24.1c-7.6,0-15-1.1-22.2-3.4c-3.6-1.2-7.1-2.9-10.5-5c-3.6-1.8-7-4.1-10.1-6.7
		c-6.1-5.5-11.1-13.3-14.8-23.2c-4.2-9.5-6.2-22-6.2-37.3c0-14.7,1.8-26.9,5.4-36.7c3.6-9.9,8.2-17.8,13.9-23.5
		c5.7-5.8,12.2-10,19.3-12.6c7-2.6,14-3.9,20.8-3.9c16.5,0.2,30.4,5.8,41.8,16.8c11.6,11.2,17.4,26.6,17.6,46.1v24.6H802z
		 M862.9,131.5c-0.4-11.6-3.4-20.4-9-26.3c-5.6-5.7-12.7-8.5-21.4-8.5c-8.7,0-15.9,2.8-21.4,8.5c-5.5,6-8.5,14.7-9,26.3H862.9z"/>
	<path d="M1013.1,203.6c-9.5,11.1-22,16.9-37.3,17.2c-8.7-0.2-16.1-2.1-22.3-5.6c-6.5-3.4-11.9-8-16.2-13.8c-4-4.7-6.6-11-7.9-19.1
		c-1.6-7.6-2.4-20.3-2.4-37.9c0-17.9,0.8-30.6,2.4-38.1c1.3-7.6,3.9-13.8,7.9-18.5c8.1-12.4,21-18.9,38.5-19.4
		c7.4,0,14.2,1.6,20.5,4.7c5.8,3.3,11.4,7.6,16.8,12.8V10.3h28.9v208.9h-28.9V203.6z M984.6,98.4c-6.9,0-12.1,1.2-15.7,3.6
		c-4,2.6-6.9,6.1-8.7,10.6c-1.8,4.5-2.9,9.4-3.5,14.7c-0.6,5.7-0.8,11.5-0.8,17.4c0,5.7,0.3,11.2,0.8,16.5
		c0.6,5.7,1.7,10.7,3.5,15.2c1.8,4.3,4.8,7.9,8.7,10.6c3.6,2.7,8.8,4,15.7,4c6.8,0,12.3-1.4,16.2-4.3c4-2.8,6.7-6.4,8.2-10.9
		c1.8-4.5,3.1-9.5,3.7-15.1c0.2-5.5,0.3-10.8,0.3-16.1c0-5.7-0.1-11.3-0.3-16.5c-0.6-5.3-1.9-10.2-3.7-14.7
		c-1.5-4.5-4.2-8.1-8.2-10.9C996.9,99.8,991.5,98.4,984.6,98.4z"/>
	<path d="M1080.1,189.4h28.9v29.8h-28.9V189.4z"/>
	<path d="M1225.3,206h-0.6c-2.7,5.1-6.8,8.8-12.5,11.2c-5.5,2.5-13.2,3.7-23,3.7c-16.1-0.2-28.5-4.6-37.2-13.2
		c-9.2-8.4-13.7-19.1-13.7-32.2c0-12.5,4-22.9,11.9-31.1c8-8.4,19.6-12.7,35-12.9h40.1v-15.7c0.2-13.1-9.7-19.5-29.6-19.1
		c-7.2,0-12.9,0.8-17.1,2.3c-4.3,1.8-7.8,4.9-10.3,9.2l-22.8-17.9c11-14.8,27.2-22,48.7-21.7c18.1-0.2,32.6,3.3,43.4,10.6
		c10.8,7.5,16.3,20.3,16.5,38.4v101.6h-28.9V206z M1225.3,156.1h-34.8c-16.9,0.4-25.2,6.4-25,17.9c0,5.1,2.2,9.4,6.5,12.9
		c4.2,3.9,11.1,5.9,20.7,5.9c12.1,0.2,20.7-1.3,25.7-4.4c4.5-3.2,6.8-10.3,6.8-21.5V156.1z"/>
	<path d="M1297.2,10.3h28.9v29.8h-28.9V10.3z M1297.2,70.5h28.9v148.7h-28.9V70.5z"/>
</g>
</svg>
