<svg width="263" height="48" viewBox="0 0 263 48" fill="none" xmlns="http://www.w3.org/2000/svg">
<g clip-path="url(#clip0_939_3075)">
<path d="M24.9753 34.5766C28.3974 31.1872 30.3686 26.641 30.4233 21.8258C30.4507 18.7322 30.4507 15.7462 30.4233 12.8948C30.4233 12.841 30.3959 12.8141 30.3412 12.8141H27.0012C26.3167 12.8141 25.9882 12.4913 25.9882 11.8188V8.59068C25.9882 8.53688 25.9335 8.45618 25.8787 8.45618H6.65989C6.63251 8.45618 6.60513 8.48308 6.60513 8.50998V11.8995C6.60513 12.3837 6.19448 12.7872 5.70169 12.7872H2.36167C2.22478 12.7872 2.14265 12.8679 2.14265 13.0024C2.14265 15.3427 2.14265 17.6024 2.11527 19.8351C2.08789 22.0679 2.22478 23.8702 2.47117 25.1883C3.21036 28.8199 4.9625 31.9942 7.7276 34.7111C10.0273 36.9708 12.327 39.2035 14.5719 41.4363C14.654 41.517 14.7635 41.5708 14.9004 41.5708C15.6944 41.5708 16.4883 41.5708 17.2549 41.5977C17.775 41.5977 17.9941 41.4363 18.35 41.1135C20.4033 39.069 22.6208 36.917 24.9753 34.5766Z" stroke="#9AA1B3" stroke-width="2"/>
<path d="M16.2967 38.8269C16.5978 38.8538 16.8169 38.7731 16.9811 38.6386C18.4869 37.1591 19.9926 35.6795 21.5257 34.2C23.3053 32.4515 24.5099 31.1064 25.1395 30.1918C26.7822 27.7708 27.6309 25 27.6856 21.8795C27.7404 19.9158 27.7404 17.8444 27.6856 15.6655C27.6856 15.5579 27.6309 15.5041 27.5214 15.5041C27.0286 15.4503 26.481 15.4503 25.9609 15.3158C24.0445 14.7509 23.141 13.4058 23.2505 11.3345C23.2505 11.2269 23.2231 11.1731 23.1136 11.1731H16.2419" stroke="#76829D" stroke-width="2"/>
<path d="M16.2966 11.1462H9.4797C9.37019 11.1462 9.31544 11.2 9.31544 11.3076C9.56183 13.8632 7.59067 15.7462 5.01721 15.4503C4.96246 15.4503 4.88033 15.4772 4.88033 15.5579C4.88033 15.5579 4.88033 15.5579 4.88033 15.5848C4.9077 17.0913 4.9077 18.6246 4.88033 20.1848C4.82557 24.0047 5.42787 26.8831 7.39903 30.0843C7.9192 30.9182 8.98691 32.1287 10.6295 33.7696C12.2448 35.3568 13.9148 36.9977 15.667 38.7193C15.8312 38.8807 16.0502 38.9345 16.324 38.8538" stroke="#8590A9" stroke-width="2"/>
<path d="M16.2966 11.1462C16.2692 12.8141 16.2692 14.5088 16.2966 16.1767C16.2966 16.2305 16.2966 16.2843 16.2692 16.3112C16.2418 16.3381 16.1871 16.365 16.1323 16.365" stroke="#C7D0DF" stroke-width="2"/>
<path d="M16.1051 16.365L14.2982 19.4317C14.2434 19.5124 14.1887 19.5393 14.1065 19.5393H10.7391C10.6023 19.5393 10.5749 19.5931 10.6296 19.7007L12.2996 22.579C12.3544 22.6597 12.3544 22.7673 12.2996 22.848L10.4654 25.9954C10.4106 26.103 10.438 26.1299 10.5475 26.1299H14.2434C14.3256 26.1299 14.4077 26.1837 14.4624 26.2375L16.2967 29.4118" stroke="#8590A9" stroke-width="2"/>
<path d="M16.324 29.4386V38.8269" stroke="#C7D0DF" stroke-width="2"/>
<path d="M16.324 29.4386L18.1856 26.2644C18.2404 26.1837 18.3225 26.1299 18.432 26.1299H21.8268C21.9363 26.1299 21.9911 26.0761 21.909 25.9685L20.1842 23.0363C20.1568 22.9825 20.1568 22.9018 20.1842 22.848L22.0732 19.6737C22.1006 19.6199 22.0732 19.593 22.0458 19.5661C22.0185 19.5661 22.0185 19.5661 21.9911 19.5661H18.2952C18.213 19.5661 18.1309 19.5392 18.0761 19.4585C17.4738 18.4901 16.9263 17.5217 16.3788 16.6071C16.2966 16.4725 16.2145 16.3918 16.105 16.3918" stroke="#76829D" stroke-width="2"/>
<path d="M0.5 22.0679V11.5228C1.7046 11.5228 2.9092 11.5497 4.11379 11.5228C4.88036 11.5228 5.59216 10.7965 5.56479 9.98949C5.53741 8.85967 5.53741 7.75675 5.56479 6.70762C5.56479 6.62692 5.61954 6.57312 5.70167 6.57312H26.7821C26.8643 6.57312 26.919 6.62692 26.919 6.70762C26.919 7.62224 26.919 8.72517 26.919 10.0164C26.919 10.9041 27.6034 11.5228 28.5069 11.5228C29.6567 11.5228 30.7792 11.5228 31.8469 11.5228C31.9564 11.5228 32.0112 11.5766 32.0112 11.6842C31.9838 14.3474 31.9838 17.0105 32.0112 19.6199C32.0386 21.6912 31.9017 23.4667 31.6279 24.9193C31.0256 28.0129 29.821 30.7836 27.9594 33.2316C27.1654 34.2807 25.9608 35.5719 24.2908 37.186C22.128 39.2573 20.0473 41.3018 18.0214 43.2924C17.9119 43.4 17.775 43.4538 17.6108 43.4538H14.9278C14.7088 43.4538 14.5445 43.3731 14.4076 43.2386C12.2448 41.0866 10.1094 38.9883 7.91923 36.8901C6.30397 35.3567 5.09937 34.0117 4.30543 32.8819C2.03312 29.7076 0.746395 26.1029 0.5 22.0679ZM24.9752 34.5766C28.3974 31.1872 30.3685 26.641 30.4233 21.8258C30.4507 18.7322 30.4507 15.7462 30.4233 12.8948C30.4233 12.841 30.3959 12.8141 30.3412 12.8141H27.0012C26.3167 12.8141 25.9882 12.4912 25.9882 11.8187V8.59066C25.9882 8.53686 25.9334 8.45616 25.8787 8.45616H6.65987C6.6325 8.45616 6.60512 8.48306 6.60512 8.50996V11.8994C6.60512 12.3836 6.19446 12.7872 5.70167 12.7872H2.36165C2.22476 12.7872 2.14263 12.8679 2.14263 13.0024C2.14263 15.3427 2.14263 17.6024 2.11526 19.8351C2.08788 22.0679 2.22476 23.8702 2.47116 25.1883C3.21034 28.8199 4.96249 31.9942 7.72759 34.7111C10.0273 36.9708 12.327 39.2035 14.5719 41.4363C14.654 41.517 14.7635 41.5708 14.9004 41.5708C15.6944 41.5708 16.4883 41.5708 17.2549 41.5977C17.775 41.5977 17.994 41.4363 18.3499 41.1135C20.4032 39.069 22.6208 36.917 24.9752 34.5766Z" fill="white"/>
<path d="M30.4233 21.8258C30.3685 26.641 28.4247 31.1872 24.9752 34.5766C22.5934 36.917 20.3758 39.0959 18.3499 41.0866C18.0214 41.4094 17.775 41.5977 17.2548 41.5708C16.4609 41.5439 15.6943 41.5439 14.9004 41.5439C14.7909 41.5439 14.654 41.4901 14.5719 41.4094C12.2996 39.1766 10.0273 36.9439 7.72757 34.6842C4.98984 31.9942 3.2377 28.8199 2.49852 25.1883C2.22474 23.8702 2.11523 22.0679 2.14261 19.8351C2.14261 17.6024 2.14261 15.3427 2.11523 13.0024C2.11523 12.8679 2.19737 12.7872 2.33425 12.7872H5.67427C6.16706 12.7872 6.57772 12.3837 6.57772 11.8995V8.50998C6.57772 8.48308 6.6051 8.45618 6.63248 8.45618H25.8513C25.906 8.45618 25.9608 8.50998 25.9608 8.56378V11.7918C25.9608 12.4644 26.2893 12.7872 26.9738 12.7872H30.3138C30.3685 12.7872 30.3959 12.8141 30.3959 12.8679C30.4507 15.7462 30.4507 18.7322 30.4233 21.8258ZM16.2966 38.8269C16.5978 38.8538 16.8168 38.7731 16.9811 38.6386C18.4868 37.1591 19.9926 35.6796 21.5257 34.2C23.3052 32.4515 24.5098 31.1065 25.1395 30.1918C26.7821 27.7708 27.6308 25 27.6856 21.8796C27.7403 19.9158 27.7403 17.8445 27.6856 15.6655C27.6856 15.5579 27.6308 15.5041 27.5213 15.5041C27.0285 15.4503 26.481 15.4503 25.9608 15.3158C24.0444 14.7509 23.1409 13.4059 23.2505 11.3345C23.2505 11.2269 23.2231 11.1731 23.1136 11.1731H16.2419H9.42495C9.31544 11.1731 9.26069 11.2269 9.26069 11.3345C9.50708 13.8901 7.53592 15.7731 4.96247 15.4772C4.90771 15.4772 4.82558 15.5041 4.82558 15.5848C4.82558 15.5848 4.82558 15.5848 4.82558 15.6117C4.85296 17.1182 4.85296 18.6515 4.82558 20.2117C4.77082 24.0316 5.37312 26.91 7.34428 30.1111C7.86445 30.9451 8.93216 32.1556 10.5748 33.7965C12.1901 35.3837 13.8601 37.0246 15.6122 38.7462C15.8312 38.8538 16.0502 38.9076 16.2966 38.8269Z" fill="#344267"/>
<path d="M16.2966 11.1462C16.2692 12.8141 16.2692 14.5088 16.2966 16.1766C16.2966 16.2305 16.2966 16.2843 16.2692 16.3112C16.2418 16.3381 16.1871 16.365 16.1323 16.365L14.3254 19.4316C14.2707 19.5123 14.2159 19.5392 14.1338 19.5392H10.739C10.6021 19.5392 10.5747 19.593 10.6295 19.7006L12.2995 22.579C12.3543 22.6597 12.3543 22.7673 12.2995 22.848L10.4652 25.9954C10.4105 26.103 10.4379 26.1299 10.5474 26.1299H14.2433C14.3254 26.1299 14.4076 26.1837 14.4623 26.2375L16.2966 29.4117V38.8C16.0228 38.8807 15.8038 38.8269 15.6395 38.6655C13.9148 36.9708 12.2174 35.3299 10.6021 33.7427C8.95949 32.1287 7.89178 30.8913 7.37161 30.0574C5.42783 26.8831 4.79816 24.0047 4.88029 20.1848C4.90766 18.6515 4.90766 17.1182 4.88029 15.5848C4.88029 15.531 4.93504 15.4772 4.9898 15.4503C4.9898 15.4503 4.9898 15.4503 5.01717 15.4503C7.61801 15.7462 9.56179 13.8363 9.3154 11.3076C9.3154 11.2 9.37015 11.1462 9.47966 11.1462H16.2966Z" fill="#D5DDEA"/>
<path d="M16.2966 11.1462H23.1683C23.2778 11.1462 23.3052 11.2 23.3052 11.3076C23.1957 13.4059 24.0991 14.724 26.0155 15.2889C26.5083 15.4234 27.0559 15.4234 27.576 15.4772C27.6855 15.4772 27.7129 15.531 27.7403 15.6386C27.7677 17.8176 27.7677 19.8889 27.7403 21.8527C27.6034 24.9731 26.7547 27.7439 25.1395 30.1919C24.5098 31.1065 23.3326 32.4515 21.5257 34.2C20.0199 35.6796 18.5142 37.1591 16.9811 38.6386C16.8168 38.8 16.5978 38.8538 16.2966 38.8269V29.4386L18.1583 26.2644C18.213 26.1837 18.2952 26.1299 18.4047 26.1299H21.7994C21.909 26.1299 21.9637 26.0761 21.8816 25.9685L20.1568 23.0363C20.1294 22.9825 20.1294 22.9018 20.1568 22.848L22.0458 19.6737C22.0732 19.6199 22.0458 19.593 22.0185 19.5661C21.9911 19.5661 21.9911 19.5661 21.9637 19.5661H18.2952C18.213 19.5661 18.1309 19.5392 18.0761 19.4585C17.4738 18.4901 16.9263 17.5217 16.3788 16.6071C16.2966 16.4726 16.2145 16.3919 16.105 16.3919C16.1597 16.365 16.2145 16.365 16.2419 16.3381C16.2692 16.3112 16.2692 16.2574 16.2692 16.2036C16.2692 14.5088 16.2692 12.841 16.2966 11.1462Z" fill="#B8C2D3"/>
<path d="M16.1051 16.3649C16.2146 16.3918 16.2967 16.4456 16.3788 16.5801C16.9264 17.5216 17.4739 18.4631 18.0762 19.4046C18.131 19.4853 18.1857 19.5122 18.2953 19.5122H21.9912C22.0459 19.5122 22.0733 19.566 22.0733 19.5929C22.0733 19.6198 22.0733 19.6198 22.0733 19.6467L20.1843 22.821C20.1569 22.8748 20.1569 22.9555 20.1843 23.0093L21.909 25.9415C21.9638 26.0491 21.9364 26.1029 21.8269 26.1029H18.4321C18.3226 26.1029 18.2405 26.1567 18.1857 26.2374L16.3241 29.4386L14.4624 26.2643C14.4077 26.1836 14.3529 26.1567 14.2434 26.1567H10.5475C10.438 26.1567 10.4106 26.1029 10.4654 26.0222L12.2996 22.8748C12.3544 22.7941 12.3544 22.6865 12.2996 22.6058L10.6296 19.7274C10.5749 19.6198 10.6023 19.566 10.7391 19.566H14.1339C14.216 19.566 14.2982 19.5391 14.3256 19.4584L16.1051 16.3649Z" fill="#344267"/>
<path d="M45.6999 38.5848V18.1404H37.4594V12.2223H61.4966V18.1404H53.2834V38.5848H45.6999ZM72.776 38.9345C70.312 38.9345 68.1766 38.4772 66.3423 37.5895C64.5354 36.648 63.1118 35.4106 62.0989 33.8234C61.1133 32.2094 60.5931 30.4071 60.5931 28.3626C60.5931 26.3182 61.0859 24.5158 62.0441 22.9287C63.0297 21.3147 64.3985 20.0772 66.1507 19.1895C67.8754 18.2749 69.8466 17.8445 72.0094 17.8445C74.0627 17.8445 75.9244 18.248 77.5944 19.0819C79.2918 19.8889 80.6332 21.0726 81.6188 22.6597C82.6044 24.2468 83.1246 26.1568 83.1246 28.4164C83.1246 28.6585 83.1246 28.9544 83.0972 29.2772C83.0698 29.6 83.0424 29.896 83.015 30.1919H66.5613V26.4258H79.1275L76.3624 27.4749C76.3898 26.5334 76.1981 25.7533 75.8148 25.0538C75.4589 24.3813 74.9388 23.8433 74.2817 23.4667C73.652 23.0901 72.8855 22.9018 72.0094 22.9018C71.1333 22.9018 70.3668 23.0901 69.7097 23.4667C69.08 23.8433 68.5599 24.3813 68.204 25.0807C67.8481 25.7533 67.6564 26.5603 67.6564 27.5018V28.6047C67.6564 29.6 67.8481 30.4878 68.2587 31.2141C68.6968 31.9404 69.2991 32.5053 70.093 32.9088C70.8869 33.2854 71.8178 33.4737 72.9402 33.4737C73.9532 33.4737 74.8293 33.3392 75.5411 33.0702C76.2803 32.7743 77.0194 32.317 77.7312 31.7252L81.5641 35.6527C80.5785 36.7287 79.3465 37.5626 77.8955 38.1275C76.4993 38.6386 74.7745 38.9345 72.776 38.9345ZM97.0869 38.9345C94.7873 38.9345 92.734 38.4772 90.9271 37.5895C89.1475 36.6749 87.7239 35.4375 86.711 33.8503C85.698 32.2363 85.1778 30.4071 85.1778 28.3626C85.1778 26.2913 85.698 24.4889 86.711 22.9018C87.7239 21.3147 89.1475 20.0772 90.9271 19.2164C92.734 18.3018 94.7873 17.8714 97.0869 17.8714C99.4414 17.8714 101.467 18.3556 103.192 19.3509C104.917 20.3462 106.121 21.7182 106.833 23.4936L101.194 26.3182C100.701 25.3767 100.098 24.6772 99.3866 24.2468C98.6748 23.7895 97.8809 23.5743 97.0596 23.5743C96.2109 23.5743 95.4443 23.7626 94.7599 24.1392C94.0754 24.5158 93.5279 25.0807 93.1172 25.8071C92.734 26.5065 92.5423 27.3673 92.5423 28.4164C92.5423 29.4655 92.734 30.3533 93.1172 31.0796C93.5279 31.8059 94.0754 32.3708 94.7599 32.7474C95.4443 33.124 96.2109 33.3123 97.0596 33.3123C97.9083 33.3123 98.6748 33.0971 99.3866 32.6667C100.098 32.2094 100.701 31.51 101.194 30.5685L106.833 33.393C106.121 35.1685 104.917 36.5673 103.192 37.5357C101.467 38.5041 99.4414 38.9345 97.0869 38.9345ZM123.013 17.8445C124.628 17.8445 126.079 18.1673 127.394 18.8129C128.708 19.4316 129.721 20.4269 130.46 21.7451C131.226 23.0632 131.61 24.7848 131.61 26.91V38.5848H124.327V28.0667C124.327 26.6141 124.026 25.565 123.396 24.8924C122.822 24.2199 121.973 23.8702 120.905 23.8702C120.139 23.8702 119.427 24.0585 118.797 24.4082C118.167 24.731 117.647 25.2422 117.291 25.9416C116.935 26.641 116.744 27.5556 116.744 28.6854V38.5848H109.461V10.6351H116.744V23.9778L115.046 22.2831C115.84 20.8036 116.935 19.7006 118.304 18.9743C119.728 18.2211 121.288 17.8445 123.013 17.8445Z" fill="white"/>
<path d="M145.955 39.1228C143.765 39.1228 141.63 38.8538 139.604 38.3427C137.578 37.7778 135.935 37.0784 134.648 36.2444L137.14 30.7567C138.344 31.5099 139.713 32.1286 141.274 32.6398C142.861 33.124 144.422 33.3661 145.982 33.3661C147.023 33.3661 147.872 33.2854 148.501 33.0971C149.131 32.9088 149.596 32.6398 149.87 32.3438C150.171 32.021 150.335 31.6444 150.335 31.214C150.335 30.6222 150.062 30.138 149.487 29.7883C148.912 29.4386 148.2 29.1427 147.297 28.9275C146.393 28.7123 145.408 28.4702 144.312 28.255C143.245 28.0398 142.15 27.7438 141.055 27.3941C139.987 27.0444 139.001 26.5871 138.098 26.0491C137.194 25.4842 136.483 24.731 135.908 23.8164C135.333 22.8748 135.059 21.7181 135.059 20.3193C135.059 18.7322 135.497 17.3064 136.373 16.0152C137.277 14.724 138.591 13.7017 140.37 12.9216C142.122 12.1415 144.34 11.7649 146.968 11.7649C148.72 11.7649 150.445 11.9532 152.142 12.3567C153.867 12.7333 155.373 13.2982 156.714 14.0514L154.387 19.593C153.101 18.9205 151.841 18.4093 150.582 18.0865C149.323 17.7368 148.118 17.5485 146.941 17.5485C145.9 17.5485 145.052 17.6561 144.422 17.8982C143.792 18.0865 143.327 18.3824 143.053 18.7322C142.779 19.0819 142.642 19.4854 142.642 19.9427C142.642 20.5076 142.916 20.9918 143.436 21.3415C144.011 21.6643 144.723 21.9333 145.627 22.1754C146.557 22.3637 147.543 22.5789 148.611 22.821C149.706 23.0362 150.801 23.3322 151.869 23.6819C152.964 24.0047 153.977 24.462 154.853 25.0269C155.756 25.5918 156.468 26.3181 156.988 27.2596C157.563 28.1743 157.837 29.3041 157.837 30.676C157.837 32.2093 157.399 33.6351 156.495 34.9263C155.619 36.2175 154.305 37.2398 152.553 38.0199C150.801 38.7193 148.611 39.1228 145.955 39.1228ZM174.537 17.8444C176.152 17.8444 177.603 18.1672 178.917 18.8129C180.231 19.4316 181.244 20.4269 181.984 21.745C182.75 23.0631 183.133 24.7848 183.133 26.9099V38.5848H175.851V28.0667C175.851 26.614 175.55 25.5649 174.92 24.8924C174.345 24.2199 173.497 23.8702 172.429 23.8702C171.662 23.8702 170.951 24.0585 170.321 24.4082C169.691 24.731 169.171 25.2421 168.815 25.9415C168.459 26.6409 168.268 27.5555 168.268 28.6854V38.5848H160.985V10.6351H168.268V23.9778L166.57 22.283C167.364 20.8035 168.459 19.7006 169.828 18.9743C171.224 18.221 172.785 17.8444 174.537 17.8444ZM187.678 38.5848V18.1672H194.96V38.5848H187.678ZM191.319 15.9076C189.978 15.9076 188.91 15.531 188.089 14.8047C187.267 14.0783 186.857 13.1637 186.857 12.0877C186.857 11.0117 187.267 10.0971 188.089 9.37075C188.91 8.64443 189.978 8.26782 191.319 8.26782C192.661 8.26782 193.728 8.61753 194.55 9.31695C195.371 9.98946 195.782 10.8772 195.782 11.9532C195.782 13.083 195.371 14.0245 194.55 14.7778C193.756 15.5579 192.688 15.9076 191.319 15.9076ZM210.593 38.9345C208.129 38.9345 205.993 38.4772 204.159 37.5895C202.352 36.6479 200.929 35.4105 199.916 33.8234C198.93 32.2093 198.41 30.407 198.41 28.3626C198.41 26.3181 198.903 24.5158 199.861 22.9286C200.846 21.3146 202.215 20.0772 203.967 19.1895C205.692 18.2748 207.663 17.8444 209.826 17.8444C211.879 17.8444 213.741 18.2479 215.411 19.0819C217.109 19.8889 218.45 21.0725 219.436 22.6596C220.421 24.2468 220.941 26.1567 220.941 28.4164C220.941 28.6585 220.941 28.9544 220.914 29.2772C220.887 29.6 220.859 29.8959 220.832 30.1918H204.378V26.4257H216.944L214.179 27.4748C214.207 26.5333 214.015 25.7532 213.632 25.0538C213.276 24.3813 212.756 23.8433 212.098 23.4667C211.469 23.09 210.702 22.9017 209.826 22.9017C208.95 22.9017 208.184 23.09 207.526 23.4667C206.897 23.8433 206.377 24.3813 206.021 25.0807C205.665 25.7532 205.473 26.5602 205.473 27.5017V28.6047C205.473 29.6 205.665 30.4877 206.075 31.214C206.514 31.9403 207.116 32.5053 207.91 32.9088C208.704 33.2854 209.635 33.4737 210.757 33.4737C211.77 33.4737 212.646 33.3392 213.358 33.0702C214.097 32.7743 214.836 32.3169 215.548 31.7251L219.381 35.6526C218.395 36.7286 217.163 37.5626 215.712 38.1275C214.316 38.6386 212.591 38.9345 210.593 38.9345ZM224.281 38.5848V10.6351H231.564V38.5848H224.281ZM245.362 38.9345C243.473 38.9345 241.748 38.5041 240.188 37.6433C238.654 36.7555 237.422 35.545 236.519 33.9848C235.588 32.3976 235.15 30.5146 235.15 28.3357C235.15 26.1836 235.616 24.3275 236.519 22.7672C237.45 21.1801 238.654 19.9696 240.188 19.1088C241.748 18.2479 243.473 17.8175 245.362 17.8175C247.141 17.8175 248.647 18.1941 249.879 18.9474C251.138 19.7006 252.069 20.8573 252.726 22.4175C253.356 23.9778 253.684 25.9415 253.684 28.3357C253.684 30.7836 253.383 32.7743 252.754 34.3345C252.124 35.8947 251.221 37.0515 249.989 37.8047C248.757 38.5579 247.223 38.9345 245.362 38.9345ZM246.895 33.2316C247.716 33.2316 248.428 33.0433 249.085 32.6667C249.742 32.29 250.262 31.7251 250.646 30.9988C251.029 30.2456 251.221 29.3579 251.221 28.3357C251.221 27.3134 251.029 26.4526 250.646 25.7263C250.262 25 249.742 24.4351 249.085 24.0585C248.455 23.6819 247.716 23.4936 246.895 23.4936C246.046 23.4936 245.307 23.6819 244.623 24.0585C243.993 24.4351 243.473 25 243.089 25.7263C242.706 26.4257 242.515 27.2865 242.515 28.3357C242.515 29.3579 242.706 30.2456 243.089 30.9988C243.473 31.7251 243.993 32.29 244.623 32.6667C245.28 33.0433 246.046 33.2316 246.895 33.2316ZM251.44 38.5848V35.0877L251.467 28.3357L251.084 21.5836V10.6351H258.393V38.5848H251.44Z" fill="white"/>
</g>
<defs>
<clipPath id="clip0_939_3075">
<rect width="262" height="48" fill="white" transform="translate(0.5)"/>
</clipPath>
</defs>
</svg>
