<svg width="269" height="40" viewBox="0 0 269 40" fill="none" xmlns="http://www.w3.org/2000/svg">
<path d="M46.7001 34.6754V13.3421H38.186V7.16664H63.0212V13.3421H54.5354V34.6754H46.7001ZM74.675 35.0403C72.1293 35.0403 69.9229 34.5631 68.0278 33.6368C66.1609 32.6544 64.69 31.3631 63.6434 29.707C62.6252 28.0228 62.0877 26.1421 62.0877 24.0087C62.0877 21.8754 62.5969 19.9947 63.5869 18.3386C64.6052 16.6544 66.0195 15.3631 67.8298 14.4368C69.6118 13.4824 71.6484 13.0333 73.883 13.0333C76.0044 13.0333 77.9279 13.4544 79.6533 14.3245C81.4071 15.1666 82.7931 16.4017 83.8114 18.0579C84.8297 19.714 85.3671 21.707 85.3671 24.0649C85.3671 24.3175 85.3671 24.6263 85.3388 24.9631C85.3105 25.3 85.2822 25.6087 85.254 25.9175H68.2541V21.9877H81.2374L78.3805 23.0824C78.4088 22.1 78.2108 21.2859 77.8147 20.5561C77.447 19.8544 76.9096 19.293 76.2307 18.9C75.5801 18.507 74.7881 18.3105 73.883 18.3105C72.9778 18.3105 72.1858 18.507 71.507 18.9C70.8564 19.293 70.319 19.8544 69.9512 20.5842C69.5835 21.2859 69.3855 22.128 69.3855 23.1105V24.2614C69.3855 25.3 69.5835 26.2263 70.0078 26.9842C70.4604 27.7421 71.0827 28.3315 71.903 28.7526C72.7233 29.1456 73.685 29.3421 74.8447 29.3421C75.8913 29.3421 76.7964 29.2017 77.5319 28.921C78.2956 28.6123 79.0593 28.1351 79.7948 27.5175L83.7548 31.6158C82.7365 32.7386 81.4636 33.6087 79.9645 34.1982C78.5219 34.7315 76.7399 35.0403 74.675 35.0403ZM99.793 35.0403C97.417 35.0403 95.2955 34.5631 93.4286 33.6368C91.59 32.6824 90.1192 31.3912 89.0726 29.7351C88.026 28.0508 87.4886 26.1421 87.4886 24.0087C87.4886 21.8473 88.026 19.9666 89.0726 18.3105C90.1192 16.6544 91.59 15.3631 93.4286 14.4649C95.2955 13.5105 97.417 13.0614 99.793 13.0614C102.226 13.0614 104.319 13.5666 106.101 14.6052C107.883 15.6438 109.127 17.0754 109.863 18.928L104.036 21.8754C103.527 20.893 102.904 20.1631 102.169 19.714C101.434 19.2368 100.613 19.0123 99.7647 19.0123C98.8878 19.0123 98.0958 19.2087 97.3887 19.6017C96.6815 19.9947 96.1158 20.5842 95.6915 21.3421C95.2955 22.0719 95.0975 22.9701 95.0975 24.0649C95.0975 25.1596 95.2955 26.0859 95.6915 26.8438C96.1158 27.6017 96.6815 28.1912 97.3887 28.5842C98.0958 28.9772 98.8878 29.1737 99.7647 29.1737C100.642 29.1737 101.434 28.9491 102.169 28.5C102.904 28.0228 103.527 27.293 104.036 26.3105L109.863 29.2579C109.127 31.1105 107.883 32.5701 106.101 33.5807C104.319 34.5912 102.226 35.0403 99.793 35.0403ZM126.58 13.0333C128.249 13.0333 129.748 13.3701 131.106 14.0438C132.463 14.6894 133.51 15.728 134.274 17.1035C135.066 18.4789 135.462 20.2754 135.462 22.493V34.6754H127.938V23.7C127.938 22.1842 127.626 21.0894 126.976 20.3877C126.382 19.6859 125.505 19.321 124.402 19.321C123.61 19.321 122.874 19.5175 122.224 19.8824C121.573 20.2193 121.036 20.7526 120.668 21.4824C120.3 22.2123 120.102 23.1666 120.102 24.3456V34.6754H112.578V5.5105H120.102V19.4333L118.349 17.6649C119.169 16.121 120.3 14.9701 121.715 14.2123C123.186 13.4263 124.798 13.0333 126.58 13.0333Z" fill="#344267"/>
<path d="M150.284 35.2369C148.021 35.2369 145.814 34.9562 143.721 34.4229C141.628 33.8334 139.931 33.1036 138.601 32.2334L141.175 26.5071C142.42 27.293 143.834 27.9387 145.447 28.472C147.087 28.9772 148.7 29.2299 150.312 29.2299C151.387 29.2299 152.264 29.1457 152.914 28.9492C153.565 28.7527 154.046 28.472 154.328 28.1632C154.64 27.8264 154.809 27.4334 154.809 26.9843C154.809 26.3667 154.526 25.8615 153.932 25.4965C153.338 25.1316 152.603 24.8229 151.67 24.5983C150.736 24.3737 149.718 24.1211 148.586 23.8965C147.483 23.672 146.352 23.3632 145.22 22.9983C144.117 22.6334 143.099 22.1562 142.165 21.5948C141.232 21.0053 140.497 20.2194 139.903 19.265C139.309 18.2825 139.026 17.0755 139.026 15.6158C139.026 13.9597 139.478 12.472 140.383 11.1246C141.317 9.77725 142.675 8.71058 144.513 7.89654C146.324 7.08251 148.615 6.68953 151.33 6.68953C153.14 6.68953 154.922 6.88602 156.676 7.30707C158.458 7.70005 160.014 8.28953 161.4 9.07549L158.996 14.8579C157.666 14.1562 156.365 13.6229 155.064 13.286C153.763 12.9211 152.518 12.7246 151.302 12.7246C150.227 12.7246 149.35 12.8369 148.7 13.0895C148.049 13.286 147.568 13.5948 147.285 13.9597C147.002 14.3246 146.861 14.7457 146.861 15.2229C146.861 15.8123 147.144 16.3176 147.681 16.6825C148.275 17.0194 149.011 17.3001 149.944 17.5527C150.906 17.7492 151.924 17.9737 153.027 18.2264C154.159 18.4509 155.29 18.7597 156.393 19.1246C157.525 19.4615 158.571 19.9386 159.477 20.5281C160.41 21.1176 161.145 21.8755 161.683 22.8579C162.277 23.8123 162.56 24.9913 162.56 26.4229C162.56 28.0229 162.107 29.5106 161.174 30.8579C160.269 32.2053 158.911 33.272 157.101 34.086C155.29 34.8158 153.027 35.2369 150.284 35.2369ZM179.814 13.0334C181.483 13.0334 182.982 13.3702 184.34 14.0439C185.698 14.6895 186.744 15.7281 187.508 17.1036C188.3 18.479 188.696 20.2755 188.696 22.493V34.6755H181.172V23.7001C181.172 22.1843 180.861 21.0895 180.21 20.3878C179.616 19.686 178.739 19.3211 177.636 19.3211C176.844 19.3211 176.109 19.5176 175.458 19.8825C174.808 20.2194 174.27 20.7527 173.902 21.4825C173.535 22.2123 173.337 23.1667 173.337 24.3457V34.6755H165.813V5.51058H173.337V19.4334L171.583 17.665C172.403 16.1211 173.535 14.9702 174.949 14.2123C176.392 13.4264 178.004 13.0334 179.814 13.0334ZM193.391 34.6755V13.3702H200.916V34.6755H193.391ZM197.153 11.0123C195.767 11.0123 194.664 10.6194 193.816 9.86146C192.967 9.10356 192.543 8.14918 192.543 7.02637C192.543 5.90356 192.967 4.94918 193.816 4.19128C194.664 3.43339 195.767 3.04041 197.153 3.04041C198.54 3.04041 199.643 3.40532 200.491 4.13514C201.34 4.8369 201.764 5.76321 201.764 6.88602C201.764 8.06497 201.34 9.04742 200.491 9.83339C199.671 10.6474 198.568 11.0123 197.153 11.0123ZM217.067 35.0404C214.521 35.0404 212.315 34.5632 210.42 33.6369C208.553 32.6544 207.082 31.3632 206.035 29.7071C205.017 28.0229 204.48 26.1422 204.48 24.0088C204.48 21.8755 204.989 19.9948 205.979 18.3387C206.997 16.6544 208.411 15.3632 210.222 14.4369C212.004 13.4825 214.04 13.0334 216.275 13.0334C218.396 13.0334 220.32 13.4544 222.045 14.3246C223.799 15.1667 225.185 16.4018 226.203 18.0579C227.222 19.7141 227.759 21.7071 227.759 24.065C227.759 24.3176 227.759 24.6264 227.731 24.9632C227.702 25.3001 227.674 25.6088 227.646 25.9176H210.646V21.9878H223.629L220.772 23.0825C220.801 22.1 220.603 21.286 220.207 20.5562C219.839 19.8544 219.301 19.293 218.623 18.9001C217.972 18.5071 217.18 18.3106 216.275 18.3106C215.37 18.3106 214.578 18.5071 213.899 18.9001C213.248 19.293 212.711 19.8544 212.343 20.5843C211.975 21.286 211.777 22.1281 211.777 23.1106V24.2615C211.777 25.3001 211.975 26.2264 212.4 26.9843C212.852 27.7422 213.475 28.3316 214.295 28.7527C215.115 29.1457 216.077 29.3422 217.237 29.3422C218.283 29.3422 219.188 29.2018 219.924 28.9211C220.687 28.6123 221.451 28.1351 222.187 27.5176L226.147 31.6158C225.128 32.7386 223.855 33.6088 222.356 34.1983C220.914 34.7316 219.132 35.0404 217.067 35.0404ZM231.21 34.6755V5.51058H238.734V34.6755H231.21ZM252.99 35.0404C251.038 35.0404 249.256 34.5913 247.644 33.693C246.06 32.7667 244.787 31.5036 243.854 29.8755C242.892 28.2194 242.439 26.2544 242.439 23.9808C242.439 21.7351 242.92 19.7983 243.854 18.1702C244.815 16.5141 246.06 15.2509 247.644 14.3527C249.256 13.4544 251.038 13.0053 252.99 13.0053C254.829 13.0053 256.384 13.3983 257.657 14.1843C258.958 14.9702 259.92 16.1772 260.599 17.8053C261.25 19.4334 261.589 21.4825 261.589 23.9808C261.589 26.5351 261.278 28.6123 260.627 30.2404C259.977 31.8685 259.043 33.0755 257.77 33.8615C256.498 34.6474 254.914 35.0404 252.99 35.0404ZM254.574 29.0895C255.423 29.0895 256.158 28.893 256.837 28.5001C257.516 28.1071 258.053 27.5176 258.449 26.7597C258.845 25.9737 259.043 25.0474 259.043 23.9808C259.043 22.9141 258.845 22.0158 258.449 21.2579C258.053 20.5001 257.516 19.9106 256.837 19.5176C256.186 19.1246 255.423 18.9281 254.574 18.9281C253.697 18.9281 252.934 19.1246 252.226 19.5176C251.576 19.9106 251.038 20.5001 250.642 21.2579C250.246 21.9878 250.048 22.886 250.048 23.9808C250.048 25.0474 250.246 25.9737 250.642 26.7597C251.038 27.5176 251.576 28.1071 252.226 28.5001C252.905 28.893 253.697 29.0895 254.574 29.0895ZM259.27 34.6755V31.0264L259.298 23.9808L258.902 16.9351V5.51058H266.454V34.6755H259.27Z" fill="#90A2D3"/>
<path d="M23.2228 6.04389V4.64038H21.8085H7.41094H5.99664V6.04389V6.80178C5.99664 8.09301 4.92177 9.15968 3.59233 9.15968H2.82861H1.41431V10.5632V16.9351C1.41431 21.707 3.30947 26.1983 6.70379 29.5667L13.1813 35.9667L13.6056 36.3877H14.1996H15.0482H15.6422L16.0665 35.9667L22.544 29.5667C25.9666 26.1983 27.8334 21.707 27.8334 16.9351V10.5913V9.18775H26.4191H25.6554C24.326 9.18775 23.2511 8.12108 23.2511 6.82985V6.04389H23.2228Z" fill="#D5DDEA"/>
<path d="M16.2079 37.7912H13.0116L5.68549 30.5491C2.00831 26.9 0 22.0719 0 16.9351V7.78419H3.59232C4.12976 7.78419 4.58233 7.36313 4.58233 6.8298V3.23682H24.6371V6.80173C24.6371 7.33506 25.0897 7.75611 25.6271 7.75611H29.2195V16.9351C29.2195 22.0719 27.1829 26.928 23.5057 30.5772L16.2079 37.7912ZM14.1713 34.9842H15.0199L21.4974 28.6123C24.6371 25.4965 26.3909 21.3702 26.3909 16.9631V10.5912H25.6271C23.534 10.5912 21.8085 8.90699 21.8085 6.8298V6.04383H7.41094V6.80173C7.41094 8.87892 5.68549 10.5631 3.59232 10.5631H2.8286V16.9351C2.8286 21.314 4.55405 25.4684 7.72208 28.5842L14.1713 34.9842Z" fill="#344267"/>
<path d="M14.624 6.04382V34.9842H15.0483C16.5758 33.5245 20.2812 29.8473 22.9967 26.8719C25.7121 23.9245 26.4193 18.8158 26.4193 16.6263V10.5631C24.2413 10.5631 23.5341 9.94558 22.7987 9.32803C21.6672 7.78417 21.8652 6.97014 21.8652 6.04382H14.624Z" fill="#B8C2D3"/>
<path fill-rule="evenodd" clip-rule="evenodd" d="M16.5191 14.8018L14.5108 11.3772L12.5025 14.8018H8.65559L10.579 18.114L8.51416 21.679H12.6722L14.6805 25.1035L16.6888 21.679H20.5357L18.6123 18.3667L20.6489 14.8018H16.5191Z" fill="#344267"/>
</svg>
