<svg width="59" height="60" viewBox="0 0 59 60" fill="none" xmlns="http://www.w3.org/2000/svg">
<g id="whatsapp">
<path id="Rectangle 3776" d="M0 6C0 2.68629 2.68629 0 6 0H59V60H6C2.68629 60 0 57.3137 0 54V6Z" fill="#8CA3D2"/>
<path id="Vector" d="M43.9706 14.9866C42.0888 13.0995 39.8474 11.6032 37.377 10.5852C34.9066 9.56708 32.2568 9.04751 29.5821 9.05676C18.375 9.05676 9.24111 18.1247 9.24111 29.2507C9.24111 32.8167 10.1853 36.2808 11.9505 39.3374L9.0769 49.8114L19.8529 46.9993C22.8291 48.6091 26.1748 49.4649 29.5821 49.4649C40.7891 49.4649 49.9231 40.397 49.9231 29.271C49.9231 23.8711 47.8089 18.7971 43.9706 14.9866ZM29.5821 46.0416C26.5443 46.0416 23.5681 45.2265 20.9613 43.6982L20.3455 43.3314L13.9415 45.0023L15.6451 38.8076L15.2346 38.1759C13.5469 35.5003 12.6507 32.4076 12.6484 29.2507C12.6484 19.9994 20.2429 12.4598 29.5616 12.4598C34.0772 12.4598 38.326 14.2122 41.5075 17.3911C43.0828 18.9478 44.3312 20.7995 45.1804 22.8388C46.0295 24.8781 46.4625 27.0644 46.4542 29.271C46.4953 38.5223 38.9008 46.0416 29.5821 46.0416ZM38.8597 33.4891C38.3466 33.2446 35.8424 32.022 35.3909 31.8386C34.9188 31.6756 34.5904 31.5941 34.2414 32.0831C33.8925 32.5925 32.9278 33.7337 32.6404 34.0597C32.3531 34.4061 32.0452 34.4469 31.532 34.182C31.0189 33.9374 29.3768 33.3873 27.4474 31.6756C25.9285 30.3307 24.9227 28.6801 24.6149 28.1707C24.3275 27.6612 24.5738 27.3963 24.8406 27.1314C25.0664 26.9073 25.3538 26.5405 25.6001 26.2552C25.8464 25.9699 25.949 25.7458 26.1132 25.4197C26.2774 25.0733 26.1953 24.788 26.0722 24.5435C25.949 24.299 24.9227 21.813 24.5122 20.7941C24.1017 19.816 23.6707 19.9382 23.3628 19.9179H22.3776C22.0286 19.9179 21.495 20.0401 21.0229 20.5496C20.5713 21.059 19.2577 22.2816 19.2577 24.7677C19.2577 27.2537 21.0844 29.6582 21.3307 29.9842C21.5771 30.3307 24.9227 35.425 30.0131 37.6054C31.2241 38.1352 32.1683 38.4408 32.9072 38.665C34.1183 39.0521 35.2267 38.991 36.1093 38.8687C37.0945 38.7261 39.1265 37.6461 39.537 36.4642C39.9681 35.2823 39.9681 34.2839 39.8244 34.0597C39.6807 33.8356 39.3728 33.7337 38.8597 33.4891Z" fill="white"/>
</g>
</svg>
